<?xml version="1.0" encoding="UTF-8" standalone="no"?>
<svg
   xmlns:dc="http://purl.org/dc/elements/1.1/"
   xmlns:cc="http://creativecommons.org/ns#"
   xmlns:rdf="http://www.w3.org/1999/02/22-rdf-syntax-ns#"
   xmlns:svg="http://www.w3.org/2000/svg"
   xmlns="http://www.w3.org/2000/svg"
   viewBox="0 0 208.34399 211.89999"
   height="211.89999"
   width="208.34399"
   xml:space="preserve"
   id="svg2"
   version="1.1"><metadata
     id="metadata8"><rdf:RDF><cc:Work
         rdf:about=""><dc:format>image/svg+xml</dc:format><dc:type
           rdf:resource="http://purl.org/dc/dcmitype/StillImage" /></cc:Work></rdf:RDF></metadata><defs
     id="defs6"><clipPath
       id="clipPath18"
       clipPathUnits="userSpaceOnUse"><path
         id="path16"
         d="M 0,158.925 H 156.258 V 0 H 0 Z" /></clipPath></defs><g
     transform="matrix(1.3333333,0,0,-1.3333333,0,211.9)"
     id="g10"><g
       id="g12"><g
         clip-path="url(#clipPath18)"
         id="g14"><g
           transform="translate(59.565,117.006)"
           id="g20"><path
             id="path22"
             style="fill:#f1d291;fill-opacity:1;fill-rule:nonzero;stroke:none"
             d="M 0,0 C 2.655,1.222 4.091,4.161 4.714,7.017 5.154,9.034 5.279,11.211 4.445,13.1 3.843,14.464 2.778,15.582 1.583,16.476 -1.602,18.857 -6.048,19.715 -9.676,18.087 -20.498,13.231 -8.688,-3.998 0,0" /></g><g
           transform="translate(51.936,128.4448)"
           id="g24"><path
             id="path26"
             style="fill:#0a84b7;fill-opacity:1;fill-rule:nonzero;stroke:none"
             d="m 0,0 c 1.832,0.645 3.664,1.29 5.496,1.936 0.565,0.198 1.156,0.4 1.75,0.321 C 8.308,2.114 9.193,1.261 9.713,0.323 12.343,-4.422 12.91,-1.689 12.946,-1.55 14.021,2.653 11.677,7.954 8.626,9.888 4.864,12.273 -0.026,12.355 -4.727,9.272 -6.757,7.94 -8.817,4.749 -8.756,1.213 -8.654,-4.68 -2.479,-0.873 0,0" /></g><g
           transform="translate(63.3156,135.3006)"
           id="g28"><path
             id="path30"
             style="fill:#214044;fill-opacity:1;fill-rule:nonzero;stroke:none"
             d="m 0,0 c -1.053,-1.798 -3.267,-2.457 -5.188,-3.264 -0.723,-0.304 -1.54,-0.816 -1.523,-1.601 0.005,-0.247 0.098,-0.483 0.19,-0.713 0.377,-0.943 0.754,-1.885 1.131,-2.828 l 1.878,0.617 c 1.22,1.127 4.624,3.634 4.703,4.684 C 1.308,-1.531 0.667,-0.441 0,0" /></g><g
           transform="translate(47.3473,122.3767)"
           id="g32"><path
             id="path34"
             style="fill:#214044;fill-opacity:1;fill-rule:nonzero;stroke:none"
             d="m 0,0 c 0.799,-0.376 1.737,-0.54 2.57,-0.248 0.832,0.293 1.505,1.12 1.436,2 1.566,-0.349 3.213,-0.329 4.771,0.057 1.511,0.374 3.08,1.258 3.493,2.76 0.46,1.673 -0.675,3.333 -1.794,4.658 -0.124,0.146 -0.259,0.3 -0.443,0.352 C 9.791,9.647 9.542,9.524 9.32,9.406 5.682,7.474 1.784,6.03 -2.235,5.125 -2.698,5.021 -3.182,4.915 -3.545,4.61 -4.706,3.634 -0.991,0.467 0,0" /></g><g
           transform="translate(57.2307,131.482)"
           id="g36"><path
             id="path38"
             style="fill:#ff690f;fill-opacity:1;fill-rule:nonzero;stroke:none"
             d="m 0,0 c -0.051,0 -0.163,-0.045 -0.332,-0.135 -3.685,-1.957 -7.615,-3.412 -11.679,-4.326 -0.435,-0.098 -0.833,-0.187 -1.1,-0.413 -0.027,-0.022 -0.058,-0.049 -0.043,-0.172 0.134,-1.033 2.655,-3.224 3.481,-3.613 0.454,-0.214 1.34,-0.528 2.196,-0.229 0.668,0.235 1.155,0.892 1.108,1.496 l -0.053,0.665 0.651,-0.144 c 1.492,-0.333 3.063,-0.314 4.545,0.054 1.662,0.411 2.835,1.312 3.137,2.411 0.404,1.472 -0.694,3.022 -1.695,4.209 C 0.177,-0.151 0.063,-0.015 0.015,-0.002 0.011,0 0.006,0 0,0 m -8.229,-9.996 c -0.602,0 -1.238,0.149 -1.865,0.445 -0.893,0.421 -3.838,2.836 -4.038,4.377 -0.055,0.425 0.082,0.8 0.386,1.056 0.451,0.379 1.011,0.505 1.505,0.616 3.993,0.898 7.838,2.322 11.446,4.238 0.238,0.127 0.637,0.337 1.078,0.212 C 0.622,0.852 0.84,0.594 0.97,0.439 2.128,-0.932 3.389,-2.751 2.863,-4.668 2.289,-6.755 -0.022,-7.536 -0.989,-7.775 -2.436,-8.136 -3.959,-8.191 -5.431,-7.943 -5.612,-8.77 -6.264,-9.508 -7.15,-9.819 -7.489,-9.938 -7.852,-9.996 -8.229,-9.996" /></g><g
           transform="translate(51.7019,122.9169)"
           id="g40"><path
             id="path42"
             style="fill:#b58c43;fill-opacity:1;fill-rule:nonzero;stroke:none"
             d="m 0,0 c 0.035,-0.483 0.08,-0.966 0.19,-1.438 0.084,-0.357 0.181,-0.93 0.478,-1.185 0.28,-0.24 0.74,-0.21 1.081,-0.181 0.451,0.04 0.884,0.07 1.161,0.449 0.12,0.164 -0.015,0.372 -0.176,0.43 C 2.465,-1.828 2.282,-1.906 2.01,-1.956 1.835,-1.989 1.562,-2.036 1.378,-2.019 1.169,-1.999 1.166,-2.022 1.06,-1.817 0.764,-1.245 0.561,-0.569 0.409,0.055 0.354,0.279 -0.017,0.237 0,0" /></g><g
           transform="translate(51.226,126.9107)"
           id="g44"><path
             id="path46"
             style="fill:#fefff1;fill-opacity:1;fill-rule:nonzero;stroke:none"
             d="M 0,0 C 0.414,-0.176 0.829,-0.344 1.248,-0.506 1.654,-0.662 2.084,-0.904 2.521,-0.924 2.633,-0.929 2.716,-0.762 2.62,-0.687 2.302,-0.441 1.895,-0.355 1.519,-0.222 1.05,-0.056 0.581,0.105 0.107,0.254 -0.04,0.3 -0.146,0.062 0,0" /></g><g
           transform="translate(52.706,127.6558)"
           id="g48"><path
             id="path50"
             style="fill:#fefff1;fill-opacity:1;fill-rule:nonzero;stroke:none"
             d="m 0,0 c 0.554,-0.186 1.116,-0.344 1.663,-0.553 0.483,-0.185 0.956,-0.501 1.473,-0.551 0.168,-0.016 0.233,0.209 0.131,0.316 -0.34,0.356 -0.915,0.512 -1.368,0.68 C 1.317,0.108 0.724,0.301 0.113,0.409 -0.154,0.456 -0.262,0.088 0,0" /></g><g
           transform="translate(54.9793,128.624)"
           id="g52"><path
             id="path54"
             style="fill:#fefff1;fill-opacity:1;fill-rule:nonzero;stroke:none"
             d="M 0,0 C 0.356,-0.192 0.721,-0.362 1.1,-0.504 1.433,-0.628 1.788,-0.81 2.139,-0.696 2.257,-0.658 2.303,-0.511 2.213,-0.419 1.986,-0.191 1.702,-0.175 1.4,-0.075 1,0.057 0.619,0.226 0.245,0.419 -0.031,0.563 -0.276,0.149 0,0" /></g><g
           transform="translate(45.0587,129.33)"
           id="g56"><path
             id="path58"
             style="fill:#fefff1;fill-opacity:1;fill-rule:nonzero;stroke:none"
             d="M 0,0 C 0.063,0.505 0.036,1.022 0.053,1.531 0.068,1.978 0.189,2.466 0.044,2.891 -0.004,3.035 -0.214,3.082 -0.294,2.935 -0.522,2.517 -0.464,1.999 -0.47,1.531 -0.476,1.005 -0.476,0.466 -0.356,-0.048 -0.305,-0.264 -0.023,-0.188 0,0" /></g><g
           transform="translate(46.0724,133.4627)"
           id="g60"><path
             id="path62"
             style="fill:#fefff1;fill-opacity:1;fill-rule:nonzero;stroke:none"
             d="M 0,0 C 0.136,0.332 0.313,0.624 0.217,0.98 0.176,1.135 -0.012,1.17 -0.124,1.07 -0.395,0.829 -0.408,0.476 -0.476,0.131 -0.538,-0.187 -0.119,-0.29 0,0" /></g><g
           transform="translate(47.018,135.3106)"
           id="g64"><path
             id="path66"
             style="fill:#fefff1;fill-opacity:1;fill-rule:nonzero;stroke:none"
             d="M 0,0 C 0.156,0.184 0.269,0.317 0.256,0.567 0.25,0.694 0.13,0.806 -0.002,0.764 -0.24,0.688 -0.323,0.568 -0.448,0.346 -0.6,0.074 -0.216,-0.255 0,0" /></g><g
           transform="translate(74.1532,39.8407)"
           id="g68"><path
             id="path70"
             style="fill:#214044;fill-opacity:1;fill-rule:nonzero;stroke:none"
             d="m 0,0 c -19.46,20.005 -38.878,40.063 -59.072,59.334 -0.572,0.545 -2.238,-1.127 -1.667,-1.673 C -38.784,36.699 -20.61,18.855 -0.605,-0.605 -0.21,-0.99 0.385,-0.395 0,0" /></g><g
           transform="translate(18.4805,96.5904)"
           id="g72"><path
             id="path74"
             style="fill:#a8cb17;fill-opacity:1;fill-rule:nonzero;stroke:none"
             d="m 0,0 c -0.478,-0.081 -0.993,-0.181 -1.322,-0.536 -0.453,-0.49 -2.06,-2.911 -1.715,-3.678 0.178,-0.398 1.109,-1.199 1.422,-1.502 0.549,-0.531 0.782,-1.297 1.115,-1.984 0.334,-0.686 0.837,-0.756 1.601,-0.756 1.622,-0.002 4.44,3 5.057,3.7 0.972,1.104 1.748,0.721 2.312,2.081 C 8.795,-1.892 7.749,-0.572 7.136,0.014 5.37,1.701 2.049,0.347 0,0" /></g><g
           transform="translate(64.556,126.093)"
           id="g76"><path
             id="path78"
             style="fill:#ff690f;fill-opacity:1;fill-rule:nonzero;stroke:none"
             d="m 0,0 c 0.5,0.582 1.081,1.245 1.849,1.236 0.767,-0.009 1.264,-1.284 0.533,-1.518 0.699,-0.494 1.397,-0.987 2.096,-1.481 2.194,1.983 4.781,3.531 7.566,4.527 1.208,0.433 3.544,0.281 3.498,1.564 -0.061,1.751 2.315,1.22 2.631,2.612 0.215,0.944 -1.248,1.941 -1.29,2.897 -0.025,0.579 0.892,2.078 0.805,2.651 -0.244,1.605 -0.725,3.174 -1.428,4.638 -0.392,0.817 -1.927,1.804 -1.212,2.36 0.269,0.209 1.759,0.395 2.096,0.435 2.381,0.289 4.242,1.363 6.623,1.652 1.347,-2.892 2.424,-6.863 2.969,-10.006 0.213,-1.234 1.216,-2.468 1.43,-3.702 0.184,-1.063 -0.421,-2.126 -0.236,-3.189 0.204,-1.178 0.409,-2.371 0.302,-3.561 -0.26,-2.891 -2.273,-5.273 -4.133,-7.501 -0.351,-0.42 -0.713,-0.871 -0.799,-1.412 -0.114,-0.715 0.278,-1.403 0.66,-2.018 2.184,-3.507 4.341,-4.562 6.919,-7.791 0.946,-1.184 2.156,-4.684 2.847,-6.032 1.626,-3.173 1.494,-6.922 1.323,-10.483 -1.723,-1.578 -4.223,-2.262 -6.51,-1.783 -0.935,0.196 -1.827,0.571 -2.768,0.729 -1.97,0.331 -3.954,-0.308 -5.886,-0.813 -5.69,-1.487 -11.674,-1.845 -17.501,-1.046 1.061,1.793 0.697,4.657 -1.352,5.029 -3.391,0.617 -2.402,3.739 -3.833,5.253 -1.754,1.857 -4.356,4.599 -6.437,3.118 -1.778,-1.266 -3.698,-0.814 -5.544,-2.325 -3.681,-3.013 -6.9,-4.615 -10.433,-4.616 -1.026,0 -2.195,-0.164 -2.958,-0.85 -1.508,-1.357 -3.468,-0.997 -5.202,-1.496 -0.852,-0.245 -1.704,-0.49 -2.555,-0.735 -1.065,-0.306 -1.676,-2.484 -3.193,-0.918 -0.897,1.781 -1.793,3.562 -2.69,5.343 -0.121,0.24 -0.244,0.49 -0.251,0.759 -0.018,0.771 0.855,1.208 1.582,1.465 1.093,0.387 2.177,0.799 3.256,1.225 1.575,0.624 3.718,0.554 4.7,1.935 1.982,2.786 4.467,1.873 6.7,2.809 1.776,0.745 3.162,0.994 4.85,2.938 2.255,2.597 3.946,2.514 5.54,3.576 2.127,1.418 4.048,1.749 5.59,3.804 -0.16,-0.213 -1.129,2.148 -2.32,1.377 -1.398,-0.905 -2.616,0.619 -2.59,1.013 0.069,1.042 3.371,1.155 4.058,1.378 C -6.568,-5.613 -2.844,-3.311 0,0" /></g><g
           transform="translate(145.96,81.6927)"
           id="g80"><path
             id="path82"
             style="fill:#214044;fill-opacity:1;fill-rule:nonzero;stroke:none"
             d="M 0,0 C 0.405,0.839 0.02,0.618 0.582,1.27 0.927,0.934 1.263,0.609 1.608,0.273 0.878,-0.23 0.309,-0.372 0,0 M 3.61,2.796 C 3.057,1.612 3.661,2.118 2.871,1.319 2.516,1.694 2.161,2.069 1.796,2.444 2.694,3.184 3.207,3.118 3.61,2.796 M 10.055,-6.16 C 8.121,-4.118 6.147,-2.065 4.144,0.007 5.417,1.24 6.404,2.76 6.956,4.467 7.104,4.93 6.808,5.335 6.424,5.513 6.424,5.779 6.197,6.045 5.851,5.986 3.878,5.611 2.131,4.773 0.681,3.588 c -23.356,24.066 -49.958,49.889 -72.494,73.205 -1.313,1.361 -3.434,-0.76 -2.072,-2.072 23.316,-22.527 49.227,-48.991 73.303,-72.327 -1.135,-1.243 -2.003,-2.723 -2.585,-4.4 -0.247,-0.701 0.473,-1.155 1.065,-1.066 1.826,0.257 3.562,0.977 5.042,2.062 2.112,-2.032 4.194,-4.025 6.266,-5.999 0.691,-0.661 1.51,0.158 0.849,0.849" /></g><g
           transform="translate(78.9248,146.1189)"
           id="g84"><path
             id="path86"
             style="fill:#a8cb17;fill-opacity:1;fill-rule:nonzero;stroke:none"
             d="M 0,0 C 0.877,-0.758 1.91,-1.434 3.067,-1.496 4.224,-1.558 5.488,-0.799 5.626,0.352 6.271,-0.229 7.407,0.083 7.856,0.826 8.304,1.569 8.17,2.551 7.744,3.307 7.318,4.063 6.643,4.642 5.982,5.205 5.225,5.849 4.469,6.494 3.712,7.138 1.111,9.353 -0.264,8.315 -1.898,6.031 -4.3,2.673 -2.833,2.446 0,0" /></g><g
           transform="translate(55.9047,119.1515)"
           id="g88"><path
             id="path90"
             style="fill:#e84d00;fill-opacity:1;fill-rule:nonzero;stroke:none"
             d="m 0,0 c -0.308,-1.018 0.042,-1.401 0.959,-1.86 0.416,-0.208 1.138,-0.206 1.555,-0.316 2.184,-0.575 3.445,-1.761 3.649,-4.061 0.129,-1.449 -0.101,-2.58 0.843,-3.815 1.02,-1.335 2.824,-1.76 4.114,-2.77 0.26,-0.204 0.743,0.064 0.508,0.392 -0.705,0.988 -1.595,1.284 -2.607,1.944 -2.708,1.764 -1.39,3.5 -2.123,5.818 -0.289,0.912 -0.934,1.703 -1.691,2.27 C 4.461,-1.838 0.68,-0.897 0.765,-0.103 0.813,0.346 0.122,0.405 0,0" /></g><g
           transform="translate(67.3775,105.1532)"
           id="g92"><path
             id="path94"
             style="fill:#e84d00;fill-opacity:1;fill-rule:nonzero;stroke:none"
             d="m 0,0 c 1.343,-1.801 -0.727,-3.656 1.365,-5.244 1.09,-0.827 2.226,-1.144 3.024,-2.378 0.705,-1.091 0.857,-2.404 1.426,-3.551 0.094,-0.19 0.4,-0.097 0.395,0.107 C 6.158,-9.141 5.176,-6.932 3.608,-5.769 3.171,-5.444 2.665,-5.238 2.204,-4.952 0.943,-4.168 1.064,-3.1 0.955,-1.8 0.886,-0.976 0.87,-0.413 0.309,0.238 0.165,0.405 -0.134,0.18 0,0" /></g><g
           transform="translate(54.1663,117.312)"
           id="g96"><path
             id="path98"
             style="fill:#e84d00;fill-opacity:1;fill-rule:nonzero;stroke:none"
             d="m 0,0 c 0.321,0.327 0.682,0.381 1.061,0.584 0.187,0.1 0.143,0.4 -0.059,0.451 C 0.446,1.176 -0.11,0.75 -0.418,0.322 -0.597,0.074 -0.208,-0.211 0,0" /></g><g
           transform="translate(59.0268,119.4731)"
           id="g100"><path
             id="path102"
             style="fill:#e84d00;fill-opacity:1;fill-rule:nonzero;stroke:none"
             d="M 0,0 C 1.453,0.559 2.914,1.425 4.246,2.234 5.271,2.856 6.125,3.846 6.389,5.037 6.425,5.198 6.209,5.365 6.086,5.214 5.73,4.773 5.515,4.265 5.184,3.805 4.732,3.177 4.152,2.795 3.486,2.417 2.284,1.735 0.977,1.136 -0.131,0.31 -0.27,0.206 -0.196,-0.075 0,0" /></g><g
           transform="translate(62.1127,118.0897)"
           id="g104"><path
             id="path106"
             style="fill:#e84d00;fill-opacity:1;fill-rule:nonzero;stroke:none"
             d="M 0,0 C 1.151,-0.052 2.2,0.372 3.071,1.121 3.98,1.904 4.987,3.195 5.303,4.358 5.344,4.51 5.144,4.638 5.032,4.516 4.323,3.74 3.97,2.69 3.256,1.892 2.405,0.941 1.302,0.296 0,0.316 -0.204,0.319 -0.202,0.009 0,0" /></g><g
           transform="translate(56.5821,115.5754)"
           id="g108"><path
             id="path110"
             style="fill:#e84d00;fill-opacity:1;fill-rule:nonzero;stroke:none"
             d="m 0,0 c 0.506,-0.052 1.108,-0.23 1.581,0.002 0.147,0.072 0.112,0.266 0,0.346 C 1.162,0.646 0.493,0.563 0,0.594 -0.386,0.618 -0.373,0.038 0,0" /></g><g
           transform="translate(75.0035,125.2266)"
           id="g112"><path
             id="path114"
             style="fill:#e84d00;fill-opacity:1;fill-rule:nonzero;stroke:none"
             d="m 0,0 c -0.454,-1.55 -0.48,-2.932 1.086,-3.726 0.818,-0.415 1.684,-0.742 2.583,-0.92 0.675,-0.134 1.249,-0.17 1.903,-0.436 0.46,-0.188 0.854,-0.397 1.335,-0.526 0.321,-0.086 0.56,0.414 0.235,0.557 -1.036,0.456 -1.918,0.85 -3.031,1.023 C 3.272,-3.898 2.35,-3.671 1.61,-3.234 0.255,-2.435 0.281,-1.439 0.498,-0.137 0.552,0.184 0.095,0.326 0,0" /></g><g
           transform="translate(82.6204,122.2335)"
           id="g116"><path
             id="path118"
             style="fill:#e84d00;fill-opacity:1;fill-rule:nonzero;stroke:none"
             d="M 0,0 C 1.304,-0.779 5.109,-2.629 6.262,-0.821 6.368,-0.655 6.191,-0.418 6.001,-0.481 4.022,-1.143 2.03,-0.582 0.218,0.373 -0.027,0.502 -0.24,0.143 0,0" /></g><g
           transform="translate(88.1991,123.9765)"
           id="g120"><path
             id="path122"
             style="fill:#e84d00;fill-opacity:1;fill-rule:nonzero;stroke:none"
             d="M 0,0 C 0.412,-0.069 0.825,-0.139 1.237,-0.208 1.575,-0.265 1.702,-0.302 1.97,-0.088 2.04,-0.032 2.058,0.11 2.005,0.183 1.808,0.452 1.668,0.455 1.332,0.489 0.915,0.53 0.499,0.572 0.083,0.613 -0.264,0.648 -0.347,0.058 0,0" /></g><g
           transform="translate(83.4192,131.4719)"
           id="g124"><path
             id="path126"
             style="fill:#e84d00;fill-opacity:1;fill-rule:nonzero;stroke:none"
             d="M 0,0 C 0.432,-1.679 2.179,-2.879 3.641,-3.652 4.566,-4.141 6.45,-4.921 7.094,-3.666 7.177,-3.503 7.079,-3.225 6.858,-3.254 5.602,-3.419 4.833,-3.382 3.677,-2.75 2.486,-2.098 0.999,-1.204 0.528,0.145 0.413,0.475 -0.089,0.345 0,0" /></g><g
           transform="translate(25.0875,96.9706)"
           id="g128"><path
             id="path130"
             style="fill:#e84d00;fill-opacity:1;fill-rule:nonzero;stroke:none"
             d="M 0,0 C 0.253,-0.591 0.534,-1.167 0.812,-1.745 1.056,-2.25 1.239,-2.879 1.669,-3.249 1.834,-3.391 2.154,-3.311 2.136,-3.056 2.097,-2.487 1.74,-2.002 1.48,-1.503 1.165,-0.898 0.855,-0.291 0.513,0.3 0.316,0.64 -0.146,0.341 0,0" /></g><g
           transform="translate(38.8112,102.5861)"
           id="g132"><path
             id="path134"
             style="fill:#e84d00;fill-opacity:1;fill-rule:nonzero;stroke:none"
             d="m 0,0 c -0.388,-0.875 -0.371,-1.854 0.226,-2.634 0.398,-0.52 1.552,-1.383 2.15,-0.717 0.055,0.061 0.087,0.173 0.032,0.247 C 2.08,-2.66 1.459,-2.68 1.041,-2.329 0.415,-1.804 0.23,-0.957 0.465,-0.196 0.548,0.073 0.119,0.267 0,0" /></g><g
           transform="translate(40.9077,102.2488)"
           id="g136"><path
             id="path138"
             style="fill:#e84d00;fill-opacity:1;fill-rule:nonzero;stroke:none"
             d="M 0,0 C 0.173,-0.53 0.433,-1.014 0.797,-1.439 1.079,-1.768 1.549,-2.311 2.03,-2.168 2.157,-2.13 2.226,-2.002 2.197,-1.874 2.109,-1.493 1.65,-1.319 1.386,-1.061 1.031,-0.716 0.764,-0.3 0.587,0.162 0.45,0.521 -0.124,0.379 0,0" /></g><g
           transform="translate(54.0752,110.6583)"
           id="g140"><path
             id="path142"
             style="fill:#e84d00;fill-opacity:1;fill-rule:nonzero;stroke:none"
             d="m 0,0 c -0.256,-1.087 -0.333,-2.22 0.368,-3.166 0.415,-0.559 1.488,-1.573 2.241,-1.343 0.122,0.037 0.21,0.17 0.17,0.299 -0.2,0.637 -1.08,0.829 -1.548,1.271 C 0.413,-2.166 0.456,-1.112 0.515,-0.07 0.532,0.225 0.068,0.287 0,0" /></g><g
           transform="translate(77.6894,96.3015)"
           id="g144"><path
             id="path146"
             style="fill:#e84d00;fill-opacity:1;fill-rule:nonzero;stroke:none"
             d="m 0,0 c 3.459,2.313 7.084,1.412 10.917,0.979 1.782,-0.201 3.509,-0.172 4.92,1.033 0.281,0.239 -0.08,0.683 -0.387,0.502 C 12.661,0.878 9.685,1.995 6.677,2.108 4.197,2.201 1.867,1.755 -0.191,0.326 -0.388,0.189 -0.204,-0.136 0,0" /></g><g
           transform="translate(76.4519,97.7374)"
           id="g148"><path
             id="path150"
             style="fill:#e84d00;fill-opacity:1;fill-rule:nonzero;stroke:none"
             d="M 0,0 C 0.975,1.07 1.973,2.167 3.177,2.988 4.484,3.88 5.767,3.979 7.252,4.27 7.523,4.323 7.48,4.7 7.252,4.775 4.214,5.787 1.327,2.327 -0.278,0.278 -0.43,0.084 -0.174,-0.192 0,0" /></g><g
           transform="translate(75.4516,101.2106)"
           id="g152"><path
             id="path154"
             style="fill:#e84d00;fill-opacity:1;fill-rule:nonzero;stroke:none"
             d="M 0,0 C 0.748,0.728 1.528,1.419 2.355,2.056 3.035,2.58 3.91,2.993 4.423,3.688 4.568,3.886 4.328,4.118 4.127,4.073 3.28,3.885 2.537,3.142 1.875,2.603 1.054,1.935 0.28,1.215 -0.458,0.458 -0.749,0.159 -0.299,-0.291 0,0" /></g><g
           transform="translate(79.9354,118.0978)"
           id="g156"><path
             id="path158"
             style="fill:#e84d00;fill-opacity:1;fill-rule:nonzero;stroke:none"
             d="M 0,0 C 1.914,-0.954 4.433,-1.399 6.455,-0.503 6.861,-0.324 6.54,0.202 6.178,0.152 4.039,-0.147 2.255,-0.354 0.154,0.366 -0.059,0.439 -0.204,0.102 0,0" /></g><g
           transform="translate(84.7729,134.6932)"
           id="g160"><path
             id="path162"
             style="fill:#e84d00;fill-opacity:1;fill-rule:nonzero;stroke:none"
             d="M 0,0 C 0.818,-0.447 1.664,-0.837 2.551,-1.127 3.114,-1.311 3.881,-1.602 4.333,-1.046 5.037,-0.181 3.961,1.495 3.002,1.611 2.856,1.628 2.726,1.446 2.775,1.313 2.946,0.849 4.652,-0.61 3.26,-0.585 2.868,-0.578 2.344,-0.295 1.979,-0.159 1.415,0.052 0.868,0.295 0.331,0.566 -0.043,0.754 -0.373,0.203 0,0" /></g><g
           transform="translate(44.1003,104.1293)"
           id="g164"><path
             id="path166"
             style="fill:#e84d00;fill-opacity:1;fill-rule:nonzero;stroke:none"
             d="m 0,0 c -0.338,-1.049 0.467,-1.946 1.403,-2.319 1.245,-0.498 2.958,-0.375 4.085,0.352 0.289,0.186 0.107,0.638 -0.234,0.556 C 4.458,-1.602 3.767,-1.918 2.924,-1.919 2.003,-1.92 0.146,-1.477 0.483,-0.133 0.562,0.181 0.099,0.306 0,0" /></g><g
           transform="translate(66.7738,111.3527)"
           id="g168"><path
             id="path170"
             style="fill:#e84d00;fill-opacity:1;fill-rule:nonzero;stroke:none"
             d="M 0,0 C 0.528,-1.571 2.067,-3.683 3.724,-4.206 5.14,-4.652 7.66,-3.506 8.74,-2.597 8.926,-2.44 8.718,-2.199 8.526,-2.23 7.055,-2.464 5.22,-4.065 3.676,-3.409 2.231,-2.795 1.287,-1.021 0.423,0.178 0.281,0.375 -0.09,0.267 0,0" /></g><g
           transform="translate(70.903,108.6227)"
           id="g172"><path
             id="path174"
             style="fill:#e84d00;fill-opacity:1;fill-rule:nonzero;stroke:none"
             d="M 0,0 C 0.698,0.372 1.41,0.703 2.147,0.991 2.685,1.201 3.356,1.288 3.752,1.725 3.863,1.846 3.832,2.081 3.649,2.118 3.042,2.239 2.429,1.872 1.881,1.623 1.139,1.285 0.427,0.884 -0.265,0.453 -0.551,0.274 -0.298,-0.159 0,0" /></g><g
           transform="translate(68.4337,39.442)"
           id="g176"><path
             id="path178"
             style="fill:#0d6d8e;fill-opacity:1;fill-rule:nonzero;stroke:none"
             d="m 0,0 c -0.157,-0.927 -0.995,-1.554 -1.723,-2.149 -1.753,-1.434 -3.206,-3.231 -4.242,-5.245 -0.557,-1.084 -0.903,-2.615 0.064,-3.358 0.577,-0.442 1.412,-0.379 2.071,-0.075 0.66,0.304 1.2,0.811 1.782,1.245 1.327,0.99 12.587,4.591 16.159,7.547 C 14.334,-1.85 7.696,6.93 4.189,8.971 3.747,9.229 3.279,9.487 2.767,9.504 1.961,9.529 1.273,8.96 0.672,8.422 -0.503,7.374 -1.751,6.101 -1.657,4.391 -1.569,2.794 0.286,1.691 0,0" /></g><g
           transform="translate(49.362,59.3364)"
           id="g180"><path
             id="path182"
             style="fill:#163133;fill-opacity:1;fill-rule:nonzero;stroke:none"
             d="m 0,0 c 0.482,-1.373 1.665,-2.36 2.796,-3.276 4.291,-3.474 11.922,-14.241 12.743,-14.302 0.999,-0.074 9.862,4.425 9.431,5.524 -0.313,0.797 -3.963,6.826 -4.674,7.303 -3.859,2.586 -2.065,4.322 -5.034,7.894 4.645,-0.31 8.656,4.998 12.55,7.55 5.878,3.853 8.74,7.235 12.803,12.97 0.096,0.136 0.194,0.279 0.214,0.444 0.065,0.549 -0.673,0.781 -1.225,0.809 -3.253,0.163 -6.507,0.327 -9.76,0.49 -1.613,0.082 -3.251,0.161 -4.824,-0.207 C 22.845,24.691 20.961,23.371 19.162,22.048 14.844,18.871 10.276,15.621 6.585,11.707 3.993,8.959 -1.451,4.134 0,0" /></g><g
           transform="translate(53.0596,60.4363)"
           id="g184"><path
             id="path186"
             style="fill:#214044;fill-opacity:1;fill-rule:nonzero;stroke:none"
             d="M 0,0 C 1.043,0.167 2.079,0.225 3.133,0.131 4.05,0.05 4.944,-0.273 5.859,-0.294 6.07,-0.299 6.145,-0.003 5.966,0.101 4.284,1.077 1.716,0.764 -0.107,0.386 -0.362,0.334 -0.25,-0.04 0,0" /></g><g
           transform="translate(57.5838,54.1406)"
           id="g188"><path
             id="path190"
             style="fill:#214044;fill-opacity:1;fill-rule:nonzero;stroke:none"
             d="M 0,0 C 2.127,-1.047 2.929,-3.224 4.096,-5.128 4.81,-6.293 5.757,-7.67 7.267,-7.636 7.653,-7.627 7.754,-7.044 7.36,-6.947 5.152,-6.402 4.35,-3.887 3.159,-2.192 2.371,-1.069 1.426,-0.174 0.146,0.345 -0.052,0.425 -0.191,0.094 0,0" /></g><g
           transform="translate(64.7059,50.1277)"
           id="g192"><path
             id="path194"
             style="fill:#214044;fill-opacity:1;fill-rule:nonzero;stroke:none"
             d="m 0,0 c 0.377,-0.373 1.111,-1.171 1.692,-0.979 0.136,0.045 0.226,0.183 0.186,0.327 C 1.798,-0.364 1.622,-0.287 1.38,-0.135 1.071,0.058 0.793,0.28 0.529,0.529 0.179,0.858 -0.343,0.34 0,0" /></g><g
           transform="translate(65.7066,44.3904)"
           id="g196"><path
             id="path198"
             style="fill:#214044;fill-opacity:1;fill-rule:nonzero;stroke:none"
             d="M 0,0 C 0.592,0.329 1.184,0.658 1.776,0.986 2.295,1.274 2.916,1.514 3.331,1.942 3.463,2.078 3.33,2.292 3.151,2.251 2.57,2.118 2.041,1.708 1.526,1.414 0.939,1.078 0.351,0.742 -0.237,0.406 -0.5,0.256 -0.265,-0.147 0,0" /></g><g
           transform="translate(55.4468,64.1605)"
           id="g200"><path
             id="path202"
             style="fill:#214044;fill-opacity:1;fill-rule:nonzero;stroke:none"
             d="m 0,0 c 0.579,-0.275 1.183,-0.485 1.748,-0.792 0.5,-0.27 0.995,-0.782 1.552,-0.883 0.238,-0.044 0.41,0.177 0.305,0.396 -0.27,0.561 -1.064,0.885 -1.597,1.144 C 1.414,0.152 0.787,0.398 0.13,0.481 -0.123,0.513 -0.223,0.106 0,0" /></g><g
           transform="translate(64.483,30.6826)"
           id="g204"><path
             id="path206"
             style="fill:#0a84b7;fill-opacity:1;fill-rule:nonzero;stroke:none"
             d="M 0,0 C 0.416,0.305 0.861,0.583 1.331,0.795 1.685,0.954 2.32,0.994 2.494,1.373 2.539,1.47 2.516,1.563 2.428,1.626 2.058,1.892 1.466,1.518 1.103,1.347 0.582,1.103 0.119,0.785 -0.313,0.406 -0.53,0.215 -0.238,-0.174 0,0" /></g><g
           transform="translate(68.7545,32.6964)"
           id="g208"><path
             id="path210"
             style="fill:#0a84b7;fill-opacity:1;fill-rule:nonzero;stroke:none"
             d="M 0,0 C 0.344,0.106 0.605,0.163 0.822,0.454 0.9,0.558 0.815,0.705 0.707,0.737 0.383,0.834 0.148,0.723 -0.168,0.61 -0.546,0.474 -0.394,-0.121 0,0" /></g><g
           transform="translate(71.9808,33.9825)"
           id="g212"><path
             id="path214"
             style="fill:#0a84b7;fill-opacity:1;fill-rule:nonzero;stroke:none"
             d="M 0,0 C 0.264,0.071 0.357,0.14 0.516,0.353 0.632,0.508 0.505,0.729 0.343,0.777 0.111,0.847 0.021,0.842 -0.207,0.751 -0.66,0.569 -0.497,-0.133 0,0" /></g><g
           transform="translate(122.0001,53.816)"
           id="g216"><path
             id="path218"
             style="fill:#163133;fill-opacity:1;fill-rule:nonzero;stroke:none"
             d="m 0,0 c -1.028,-0.934 -2.219,-1.672 -3.478,-2.258 l -106.645,-49.686 c 0,0 -7.815,-4.212 -11.228,0 -3.413,4.212 7.452,1.33 13.435,4.434 5.542,2.875 91.626,41.521 104.265,47.192 1.363,0.612 2.573,1.547 3.42,2.778 C 0.063,2.886 0.291,3.321 0.355,3.701 0.551,4.865 3.831,3.483 0,0" /></g><g
           transform="translate(96.7919,83.475)"
           id="g220"><path
             id="path222"
             style="fill:#214044;fill-opacity:1;fill-rule:nonzero;stroke:none"
             d="m 0,0 c -2.22,-3.481 -4.061,-4.147 -6.781,-5.085 -2.891,-0.997 -7.64,-1.127 -10.531,-2.125 -1.296,-0.447 -5.98,-0.347 -6.702,-1.513 -0.953,-1.537 1.161,-3.024 1.778,-4.724 0.862,-2.378 2.388,-2.89 4.059,-4.789 1.391,-1.579 2.603,-4.61 4.201,-5.979 1.598,-1.369 3.028,-3.181 3.111,-5.284 0.018,-0.471 -0.041,-0.968 -0.314,-1.352 -0.227,-0.32 -0.577,-0.528 -0.918,-0.723 -3.804,-2.168 -7.856,-3.9 -12.052,-5.152 -0.539,-0.16 -12.865,19.254 -13.317,20.866 -0.928,3.306 -1.586,3.727 -2.722,6.967 -1.035,2.949 -2.285,6.47 0,8.602 0.989,0.923 4.077,3.042 5.364,3.459 3.887,1.26 5.854,3.63 9.767,4.81 3.067,0.926 6.19,1.835 9.394,1.857 4.638,0.031 6.891,0.466 11.469,0 C -2.255,9.638 0.988,7.294 0.988,7.294 0.859,5.426 0.918,1.44 0,0" /></g><g
           transform="translate(71.5442,44.6112)"
           id="g224"><path
             id="path226"
             style="fill:#0a84b7;fill-opacity:1;fill-rule:nonzero;stroke:none"
             d="m 0,0 c -2.578,-0.911 -4.345,-3.716 -4.052,-6.435 0.085,-0.786 0.481,-1.698 1.267,-1.79 0.305,-0.036 0.607,0.065 0.897,0.166 3.036,1.062 6.006,2.315 8.885,3.749 4.525,2.255 8.815,4.951 13.061,7.695 0.145,0.094 0.298,0.196 0.372,0.352 0.263,0.554 -0.567,0.935 -1.159,1.092 C 16.913,5.45 15.22,7.904 12.785,8.035 11.644,8.095 10.551,7.619 9.508,7.152 7.67,6.33 4.629,5.418 3.419,3.719 2.056,1.806 2.659,0.939 0,0" /></g><g
           transform="translate(65.0453,83.0129)"
           id="g228"><path
             id="path230"
             style="fill:#163133;fill-opacity:1;fill-rule:nonzero;stroke:none"
             d="M 0,0 C 1.721,-0.661 3.15,-1.367 4.063,-3.042 4.806,-4.405 5.34,-5.879 6.067,-7.252 6.228,-7.556 6.652,-7.289 6.519,-6.987 5.802,-5.355 5.027,-3.434 3.929,-2.022 2.963,-0.78 1.51,-0.239 0.072,0.26 -0.094,0.318 -0.16,0.061 0,0" /></g><g
           transform="translate(70.3016,83.0686)"
           id="g232"><path
             id="path234"
             style="fill:#163133;fill-opacity:1;fill-rule:nonzero;stroke:none"
             d="m 0,0 c 0.402,-0.872 0.719,-1.774 0.91,-2.716 0.17,-0.838 0.112,-1.74 0.381,-2.547 0.101,-0.301 0.563,-0.336 0.647,0 0.441,1.753 -0.6,4.049 -1.399,5.578 C 0.351,0.676 -0.165,0.359 0,0" /></g><g
           transform="translate(75.2589,78.4301)"
           id="g236"><path
             id="path238"
             style="fill:#163133;fill-opacity:1;fill-rule:nonzero;stroke:none"
             d="M 0,0 C 0.085,0.518 0.212,1.04 0.2,1.567 0.193,1.884 -0.236,1.928 -0.338,1.64 -0.503,1.169 -0.542,0.662 -0.617,0.17 -0.678,-0.231 -0.067,-0.408 0,0" /></g><g
           transform="translate(79.9148,80.2115)"
           id="g240"><path
             id="path242"
             style="fill:#163133;fill-opacity:1;fill-rule:nonzero;stroke:none"
             d="M 0,0 C 1.181,-0.13 2.083,0.14 3.161,0.599 4.743,1.272 6.38,1.754 7.963,2.407 9.514,3.048 11.237,4.136 11.349,5.965 11.361,6.173 11.057,6.247 10.961,6.07 9.739,3.833 8.169,3.179 5.841,2.365 3.897,1.685 2.108,0.458 0,0.439 -0.289,0.437 -0.275,0.03 0,0" /></g><g
           transform="translate(86.8153,85.4315)"
           id="g244"><path
             id="path246"
             style="fill:#163133;fill-opacity:1;fill-rule:nonzero;stroke:none"
             d="M 0,0 C 0.492,0.318 0.971,0.654 1.434,1.012 1.825,1.314 2.321,1.626 2.578,2.053 2.722,2.291 2.444,2.52 2.22,2.411 1.793,2.204 1.441,1.782 1.072,1.482 0.635,1.129 0.181,0.8 -0.284,0.486 -0.582,0.285 -0.307,-0.198 0,0" /></g><g
           transform="translate(74.8783,52.0571)"
           id="g248"><path
             id="path250"
             style="fill:#163133;fill-opacity:1;fill-rule:nonzero;stroke:none"
             d="M 0,0 C 0.406,1.159 1.936,1.892 2.99,2.344 3.956,2.757 4.975,2.83 5.947,3.169 6.254,3.276 6.174,3.666 5.874,3.706 3.928,3.968 -0.138,2.255 -0.416,0.056 -0.448,-0.194 -0.074,-0.211 0,0" /></g><g
           transform="translate(77.9275,57.4575)"
           id="g252"><path
             id="path254"
             style="fill:#163133;fill-opacity:1;fill-rule:nonzero;stroke:none"
             d="M 0,0 C 0.838,0.652 1.802,1.54 1.486,2.726 1.368,3.165 1.1,3.435 0.744,3.703 0.012,4.254 -0.508,4.671 -1.053,5.437 -1.255,5.722 -1.812,5.561 -1.666,5.179 -1.414,4.522 -0.95,3.977 -0.376,3.569 0.148,3.197 0.806,2.967 0.957,2.227 1.109,1.483 0.175,0.75 -0.322,0.322 -0.547,0.127 -0.225,-0.175 0,0" /></g><g
           transform="translate(66.2111,76.9625)"
           id="g256"><path
             id="path258"
             style="fill:#163133;fill-opacity:1;fill-rule:nonzero;stroke:none"
             d="M 0,0 C 3.399,-1.709 4.982,-6.066 5.771,-9.523 5.872,-9.968 6.528,-9.776 6.448,-9.337 5.796,-5.801 3.642,-1.224 0.237,0.406 -0.033,0.535 -0.272,0.137 0,0" /></g><g
           transform="translate(72.706,64.8228)"
           id="g260"><path
             id="path262"
             style="fill:#163133;fill-opacity:1;fill-rule:nonzero;stroke:none"
             d="M 0,0 C -0.009,-0.433 -0.113,-0.854 0.206,-1.186 0.31,-1.294 0.5,-1.294 0.604,-1.186 0.923,-0.854 0.818,-0.433 0.809,0 0.799,0.521 0.01,0.522 0,0" /></g><g
           transform="translate(71.8767,52.0623)"
           id="g264"><path
             id="path266"
             style="fill:#163133;fill-opacity:1;fill-rule:nonzero;stroke:none"
             d="M 0,0 C -0.071,0.479 0.165,0.931 0.542,1.217 0.894,1.483 1.258,1.426 1.649,1.553 1.776,1.595 1.865,1.789 1.737,1.888 1.245,2.271 0.549,1.948 0.136,1.58 -0.352,1.144 -0.575,0.516 -0.453,-0.125 -0.396,-0.426 0.043,-0.293 0,0" /></g><g
           transform="translate(70.854,55.6096)"
           id="g268"><path
             id="path270"
             style="fill:#163133;fill-opacity:1;fill-rule:nonzero;stroke:none"
             d="M 0,0 C 0.164,0.175 0.383,0.271 0.558,0.435 0.672,0.542 0.62,0.762 0.462,0.796 0.092,0.874 -0.178,0.69 -0.414,0.414 -0.657,0.131 -0.26,-0.278 0,0" /></g><g
           transform="translate(69.9876,40.0071)"
           id="g272"><path
             id="path274"
             style="fill:#0d6d8e;fill-opacity:1;fill-rule:nonzero;stroke:none"
             d="m 0,0 c 3.44,1.935 6.854,4.017 10.73,4.947 2.548,0.611 5.306,0.718 6.815,3.15 0.31,0.498 -0.454,0.93 -0.778,0.455 C 14.86,5.761 10.163,5.936 7.244,4.695 4.583,3.564 2.202,1.931 -0.21,0.359 -0.433,0.214 -0.235,-0.132 0,0" /></g><g
           transform="translate(81.2567,46.3515)"
           id="g276"><path
             id="path278"
             style="fill:#0d6d8e;fill-opacity:1;fill-rule:nonzero;stroke:none"
             d="m 0,0 c 1.303,0.173 2.794,0.532 3.829,1.397 0.719,0.6 0.992,1.784 0.056,2.33 C 3.386,4.017 2.993,3.294 3.441,2.968 4.628,2.104 0.386,0.659 -0.075,0.553 -0.377,0.483 -0.319,-0.042 0,0" /></g><g
           transform="translate(82.7352,48.6612)"
           id="g280"><path
             id="path282"
             style="fill:#0d6d8e;fill-opacity:1;fill-rule:nonzero;stroke:none"
             d="M 0,0 C 0.201,0.187 0.395,0.336 0.516,0.585 0.656,0.874 0.373,1.158 0.083,1.017 -0.163,0.898 -0.317,0.7 -0.502,0.501 -0.813,0.167 -0.335,-0.312 0,0" /></g><g
           transform="translate(73.4797,44.2566)"
           id="g284"><path
             id="path286"
             style="fill:#0d6d8e;fill-opacity:1;fill-rule:nonzero;stroke:none"
             d="m 0,0 c 0.597,0.013 1.198,0.008 1.794,0.048 0.139,0.01 0.296,0.071 0.36,0.206 0.078,0.166 0.101,0.258 0,0.421 C 2.079,0.795 1.941,0.889 1.794,0.881 1.195,0.848 0.597,0.769 0,0.709 -0.445,0.665 -0.465,-0.01 0,0" /></g><g
           transform="translate(131.781,64.7861)"
           id="g288"><path
             id="path290"
             style="fill:#214044;fill-opacity:1;fill-rule:nonzero;stroke:none"
             d="m 0,0 c -1.063,-0.966 -2.294,-1.729 -3.596,-2.335 l -110.281,-51.38 c 0,0 -8.081,-4.355 -11.61,0 -3.53,4.356 7.705,1.376 13.892,4.585 5.732,2.974 94.75,42.937 107.819,48.802 1.41,0.632 2.661,1.599 3.537,2.872 0.304,0.441 0.54,0.89 0.606,1.283 C 0.57,5.03 3.962,3.601 0,0" /></g></g></g></g></svg>