<?xml version="1.0" encoding="UTF-8" standalone="no"?>
<svg
   xmlns:dc="http://purl.org/dc/elements/1.1/"
   xmlns:cc="http://creativecommons.org/ns#"
   xmlns:rdf="http://www.w3.org/1999/02/22-rdf-syntax-ns#"
   xmlns:svg="http://www.w3.org/2000/svg"
   xmlns="http://www.w3.org/2000/svg"
   viewBox="0 0 211.42799 152.92799"
   height="152.92799"
   width="211.42799"
   xml:space="preserve"
   id="svg2"
   version="1.1"><metadata
     id="metadata8"><rdf:RDF><cc:Work
         rdf:about=""><dc:format>image/svg+xml</dc:format><dc:type
           rdf:resource="http://purl.org/dc/dcmitype/StillImage" /></cc:Work></rdf:RDF></metadata><defs
     id="defs6"><clipPath
       id="clipPath18"
       clipPathUnits="userSpaceOnUse"><path
         id="path16"
         d="M 0,114.696 H 158.571 V 0 H 0 Z" /></clipPath></defs><g
     transform="matrix(1.3333333,0,0,-1.3333333,0,152.928)"
     id="g10"><g
       id="g12"><g
         clip-path="url(#clipPath18)"
         id="g14"><g
           transform="translate(130.0541,67.3986)"
           id="g20"><path
             id="path22"
             style="fill:#135353;fill-opacity:1;fill-rule:nonzero;stroke:none"
             d="m 0,0 c 0.189,-0.681 2.205,-2.003 2.883,-2.204 0.764,-0.228 1.927,-0.48 2.563,0 1.349,1.017 -2.743,2.743 -1.469,3.89 1.014,0.912 2.547,0.982 3.781,0.402 1.234,-0.581 2.234,-1.564 3.428,-2.221 1.31,-0.72 2.575,-0.926 3.434,-0.362 0.353,0.456 -0.031,1.049 -0.269,1.574 -0.254,0.557 0.603,0.679 0.59,1.29 -0.012,0.612 -0.316,1.029 -1.13,1.678 0.277,0.485 0.208,1.089 0.046,1.624 -0.14,0.459 -1.579,0.997 -1.385,1.436 0.495,1.122 -2.138,1.963 -4.052,2.416 -2.994,0.709 -6.285,-0.033 -9.106,1.193 -0.619,0.27 -1.207,0.632 -1.867,0.775 -0.66,0.143 -1.444,0.007 -1.832,-0.546 C -4.866,10.261 -4.526,9.289 -3.982,8.654 -1.604,5.877 -1.011,3.639 0,0" /></g><g
           transform="translate(11.6472,88.1482)"
           id="g24"><path
             id="path26"
             style="fill:#135353;fill-opacity:1;fill-rule:nonzero;stroke:none"
             d="m 0,0 c -0.623,-0.22 -1.281,-0.225 -1.93,-0.349 -2.477,-0.472 -2.584,0.435 -2.567,1.095 0.015,0.58 1.782,1.208 2.146,1.658 0.364,0.451 0.622,1.152 0.224,1.573 -3.075,0.91 -6.417,-0.218 -8.217,0.398 -2.383,0.916 -0.984,2.671 0.152,2.743 -0.175,0.422 0.012,1.362 0.298,1.768 0.503,0.714 1.914,1.081 2.34,0.903 -0.136,0.664 0.45,1.391 1.103,1.573 0.965,0.268 1.875,-0.152 2.044,0.088 0.54,0.764 2.937,0.509 4.881,-0.269 L 8.304,8.05 C 9.125,7.722 9.892,7.242 10.462,6.565 14.071,2.275 2.272,0.803 0,0" /></g><g
           transform="translate(41.693,96.9049)"
           id="g28"><path
             id="path30"
             style="fill:#a8cb17;fill-opacity:1;fill-rule:nonzero;stroke:none"
             d="m 0,0 c -1.791,0.123 -3.586,-0.084 -5.378,-0.187 -4.326,-0.251 -8.687,0.103 -12.916,1.047 -2.247,0.502 -4.893,1.077 -6.615,-0.451 -1.298,-1.152 -1.519,-3.074 -1.544,-4.809 -0.016,-1.147 0.036,-2.367 0.679,-3.317 1.236,-1.826 3.864,-1.765 6.048,-2.07 3.682,-0.514 7.005,-2.587 10.684,-3.123 2.104,-0.306 4.248,-0.098 6.369,-0.248 3.871,-0.275 7.548,-1.729 11.153,-3.167 0.044,-3.531 0.687,-6.967 1.707,-10.323 0.773,-2.54 3.135,-3.004 4.245,-5.458 1.498,-3.313 -0.084,-7.936 1.619,-11.117 0.243,-0.455 2.427,-1.573 2.845,-1.876 0.566,-0.41 1.314,-0.436 2.013,-0.446 7.801,-0.114 15.602,-0.228 23.404,-0.341 1.752,-0.026 10.182,2.243 11.51,3.388 2.364,2.036 -2.371,5.628 -3.705,8.449 -2.367,5.007 -5.569,6.562 -6.279,12.055 -0.108,0.836 0.135,3.902 1.429,4.032 5.308,0.53 10.599,0.554 15.644,-1.18 2.286,-0.786 4.698,-0.076 6.844,-1.191 5.339,-2.775 11.004,-4.922 16.841,-6.381 0.824,2.375 1.162,4.918 0.987,7.427 -0.051,0.728 -0.159,1.491 -0.598,2.076 -0.386,0.515 -0.98,0.825 -1.554,1.117 -5.782,2.944 -11.625,5.768 -17.524,8.471 -1.781,0.816 -3.59,1.628 -5.519,1.973 -3.184,0.567 -6.512,-0.174 -9.665,0.542 -1.867,0.423 -3.586,1.339 -5.425,1.871 -2.692,0.778 -4.22,1.442 -6.918,0.234 -1.395,0.929 2.9,4.976 0,5.449 -0.634,0.103 -4.232,1.172 -4.857,1.313 -5.566,1.25 -7.027,-0.474 -10.794,0 -2.381,0.299 -7.408,1.065 -9.309,-1.178 -0.757,-0.895 0.638,-4.438 -0.082,-5.033 -0.998,-0.824 -4.128,-0.077 -5.25,0.13 C 6.688,-1.697 3.479,-0.239 0,0" /></g><g
           transform="translate(77.9691,95.7132)"
           id="g32"><path
             id="path34"
             style="fill:#a0b718;fill-opacity:1;fill-rule:nonzero;stroke:none"
             d="m 0,0 c -0.525,0.263 -1.144,0.226 -1.731,0.192 -4.305,-0.245 -9.052,1.725 -13.317,1.493 -4.151,-0.226 -2.601,-4.242 -1.982,-7.728 0.047,-0.265 0.099,-0.544 0.274,-0.748 0.222,-0.258 0.581,-0.337 0.909,-0.429 1.307,-0.366 2.481,-1.19 3.27,-2.295 0.268,-0.376 0.505,-0.794 0.893,-1.044 0.402,-0.261 0.905,-0.298 1.383,-0.328 1.534,-0.095 3.069,-0.19 4.603,-0.285 0.54,-0.033 1.093,-0.066 1.615,0.078 0.55,0.152 1.028,0.489 1.494,0.819 0.612,0.435 1.224,0.87 1.837,1.306 0.288,0.204 0.585,0.419 0.762,0.726 0.322,0.562 0.157,1.262 0.161,1.91 0.008,1.141 0.564,2.2 0.808,3.314 C 1.224,-1.905 1.021,-0.511 0,0" /></g><g
           transform="translate(59.3418,86.611)"
           id="g36"><path
             id="path38"
             style="fill:#a0b718;fill-opacity:1;fill-rule:nonzero;stroke:none"
             d="M 0,0 C 1.476,-1.226 2.087,-2.719 3.08,-4.284 3.658,-5.196 4.709,-6.288 5.854,-5.773 6.132,-5.648 6.195,-5.17 5.956,-4.979 5.477,-4.595 4.901,-4.508 4.46,-4.057 3.923,-3.508 3.62,-2.773 3.219,-2.129 2.518,-1.006 1.584,-0.101 0.501,0.649 0.119,0.913 -0.362,0.301 0,0" /></g><g
           transform="translate(68.6168,85.5905)"
           id="g40"><path
             id="path42"
             style="fill:#a0b718;fill-opacity:1;fill-rule:nonzero;stroke:none"
             d="m 0,0 c 0.341,-3.05 -1.863,-5.366 -2.109,-8.296 -0.208,-2.492 1.053,-4.829 0.842,-7.275 -0.121,-1.398 -1.061,-2.008 -0.76,-3.512 0.223,-1.11 1.15,-1.788 1.77,-2.636 1.54,-2.108 2.717,-4.051 3.426,-6.616 0.171,-0.616 1.131,-0.355 0.96,0.265 -0.626,2.263 -1.514,3.782 -2.653,5.802 -1.744,3.093 -1.782,5.168 -1.402,8.478 0.055,0.482 -0.383,0.977 -0.4,1.434 -0.449,11.893 0.231,3.948 0.755,8.072 0.252,1.982 0.565,2.003 0.151,4.362 C 0.523,0.402 -0.037,0.332 0,0" /></g><g
           transform="translate(82.5146,92.758)"
           id="g44"><path
             id="path46"
             style="fill:#a0b718;fill-opacity:1;fill-rule:nonzero;stroke:none"
             d="m 0,0 c -0.583,-2.789 -0.594,-6.071 1.848,-8.006 0.457,-0.362 1.11,0.25 0.656,0.656 C 0.383,-5.454 0.173,-2.829 0.585,-0.161 0.644,0.216 0.081,0.389 0,0" /></g><g
           transform="translate(85.9249,83.158)"
           id="g48"><path
             id="path50"
             style="fill:#a0b718;fill-opacity:1;fill-rule:nonzero;stroke:none"
             d="M 0,0 C 0.237,-0.316 0.448,-0.603 0.751,-0.859 1.158,-1.202 1.677,-0.782 1.466,-0.307 1.324,0.013 1.141,0.266 0.932,0.545 0.52,1.094 -0.417,0.557 0,0" /></g><g
           transform="translate(51.7212,83.7539)"
           id="g52"><path
             id="path54"
             style="fill:#a0b718;fill-opacity:1;fill-rule:nonzero;stroke:none"
             d="M 0,0 C -0.337,1.181 -0.154,2.669 -0.282,3.908 -0.4,5.055 -0.111,6.176 -0.226,7.288 -0.258,7.602 -0.611,7.785 -0.859,7.55 -1.739,6.72 -1.577,5.311 -1.465,4.193 -1.322,2.763 -1.462,1.083 -1.025,-0.283 -0.817,-0.93 0.189,-0.662 0,0" /></g><g
           transform="translate(126.2733,72.6486)"
           id="g56"><path
             id="path58"
             style="fill:#a0b718;fill-opacity:1;fill-rule:nonzero;stroke:none"
             d="M 0,0 C 0.66,0.452 1.075,1.171 0.972,1.993 0.909,2.496 0.6,2.889 0.462,3.368 0.288,3.978 0.462,4.613 0.234,5.199 0.146,5.426 -0.225,5.553 -0.352,5.276 -0.633,4.661 -0.551,3.944 -0.365,3.3 -0.09,2.347 0.759,1.409 -0.349,0.597 -0.702,0.339 -0.372,-0.255 0,0" /></g><g
           transform="translate(19.2093,96.1595)"
           id="g60"><path
             id="path62"
             style="fill:#a0b718;fill-opacity:1;fill-rule:nonzero;stroke:none"
             d="m 0,0 c -1.118,-0.197 -1.226,-1.567 -1.236,-2.48 -0.01,-0.93 0.155,-2.436 1.23,-2.733 0.231,-0.063 0.372,0.18 0.286,0.372 -0.292,0.655 -0.757,1.1 -0.745,1.876 0.006,0.37 0.24,1.883 0.725,2.022 C 0.875,-0.768 0.611,0.108 0,0" /></g><g
           transform="translate(51.3781,76.536)"
           id="g64"><path
             id="path66"
             style="fill:#a0b718;fill-opacity:1;fill-rule:nonzero;stroke:none"
             d="m 0,0 c 1.459,-2.875 3.107,-5.681 5.126,-8.206 1.693,-2.117 3.743,-1.451 6.177,-2.002 0.281,-0.064 0.474,0.265 0.279,0.479 -0.502,0.548 -0.826,0.652 -1.573,0.733 C 9.489,-8.94 8.973,-9.004 8.454,-8.982 6.943,-8.92 6.222,-8.21 5.336,-7.036 3.577,-4.703 1.985,-2.221 0.51,0.298 0.316,0.628 -0.171,0.337 0,0" /></g><g
           transform="translate(73.1846,67.9899)"
           id="g68"><path
             id="path70"
             style="fill:#a0b718;fill-opacity:1;fill-rule:nonzero;stroke:none"
             d="M 0,0 C 1.512,0.904 2.954,1.911 4.308,3.037 5.491,4.021 6.987,5.124 7.594,6.571 7.739,6.915 7.278,7.185 7,7.028 5.739,6.316 4.799,4.954 3.715,3.993 2.399,2.827 0.985,1.795 -0.502,0.859 -1.042,0.519 -0.552,-0.331 0,0" /></g><g
           transform="translate(103.6281,84.0896)"
           id="g72"><path
             id="path74"
             style="fill:#a0b718;fill-opacity:1;fill-rule:nonzero;stroke:none"
             d="m 0,0 c 0.21,-0.74 0.499,-1.453 0.885,-2.119 0.28,-0.484 0.722,-1.387 1.325,-1.472 0.162,-0.023 0.352,0.066 0.342,0.26 -0.03,0.596 -0.634,1.02 -0.95,1.504 C 1.194,-1.201 0.882,-0.531 0.65,0.179 0.517,0.589 -0.119,0.421 0,0" /></g><g
           transform="translate(105.8371,84.1632)"
           id="g76"><path
             id="path78"
             style="fill:#a0b718;fill-opacity:1;fill-rule:nonzero;stroke:none"
             d="m 0,0 c 0.19,-0.631 0.426,-1.246 0.712,-1.84 0.255,-0.528 0.536,-1.242 1.1,-1.495 0.296,-0.133 0.738,0.016 0.71,0.408 C 2.481,-2.35 2.092,-1.935 1.813,-1.446 1.497,-0.893 1.238,-0.317 1.024,0.283 0.798,0.918 -0.2,0.663 0,0" /></g><g
           transform="translate(34.5356,92.1288)"
           id="g80"><path
             id="path82"
             style="fill:#a0b718;fill-opacity:1;fill-rule:nonzero;stroke:none"
             d="m 0,0 c -0.078,-1.047 0.07,-2.161 0.529,-3.114 0.369,-0.767 1.001,-1.82 1.939,-1.86 0.159,-0.007 0.277,0.162 0.235,0.309 C 2.498,-3.93 1.759,-3.434 1.362,-2.793 0.824,-1.925 0.532,-1.025 0.506,0 0.498,0.329 0.024,0.322 0,0" /></g><g
           transform="translate(37.1577,90.2669)"
           id="g84"><path
             id="path86"
             style="fill:#a0b718;fill-opacity:1;fill-rule:nonzero;stroke:none"
             d="m 0,0 c 0.117,-0.831 0.874,-2.751 1.983,-2.476 0.244,0.06 0.336,0.304 0.3,0.529 C 2.215,-1.513 1.748,-1.316 1.475,-1.009 1.157,-0.652 0.96,-0.228 0.846,0.233 0.707,0.796 -0.076,0.542 0,0" /></g><g
           transform="translate(68.5365,88.2101)"
           id="g88"><path
             id="path90"
             style="fill:#f1d291;fill-opacity:1;fill-rule:nonzero;stroke:none"
             d="m 0,0 c 0.983,-0.614 1.961,-0.836 3.115,-0.732 1.819,0.163 3.264,1.473 4.309,2.971 2.911,4.171 4.721,8.695 4.719,13.781 -0.001,1.251 -0.11,2.909 -0.63,4.047 -0.979,2.147 -2.23,3.341 -4.441,4.165 -5.717,2.13 -13.853,-0.31 -14.58,-7.1 C -8.201,10.655 -5.66,3.533 0,0" /></g><g
           transform="translate(81.1584,103.3789)"
           id="g92"><path
             id="path94"
             style="fill:#ff690f;fill-opacity:1;fill-rule:nonzero;stroke:none"
             d="m 0,0 c 0.48,6.32 -0.969,8.622 -5.059,10.425 -1.802,0.794 -3.824,0.918 -5.793,0.889 -3.261,-0.048 -6.06,-0.575 -8.245,-2.998 -0.923,-1.022 -2.594,-3.957 -2.26,-7.309 0,0 4.28,0.258 5.448,0.122 C -14.326,0.946 -0.087,0.483 0,0" /></g><g
           transform="translate(62.8797,97.8446)"
           id="g96"><path
             id="path98"
             style="fill:#ff690f;fill-opacity:1;fill-rule:nonzero;stroke:none"
             d="M 0,0 C 0.033,-0.147 0.069,-0.298 0.042,-0.447 -0.012,-0.736 -0.306,-0.938 -0.6,-0.956 -0.894,-0.974 -1.178,-0.842 -1.415,-0.667 -2.305,-0.008 -2.601,1.175 -2.778,2.269 -2.987,3.554 -3.116,4.852 -3.164,6.153 -3.197,7.052 -3.18,8 -2.731,8.779 -2.287,9.548 -0.98,10.278 -0.204,9.51 0.446,8.867 0.098,7.304 -0.026,6.484 -0.359,4.275 -0.503,2.217 0,0" /></g><g
           transform="translate(62.6853,104.6568)"
           id="g100"><path
             id="path102"
             style="fill:#214044;fill-opacity:1;fill-rule:nonzero;stroke:none"
             d="m 0,0 h -2.98 c -0.804,-1.664 0.096,-3.305 0.096,-3.305 0,0 1.35,-0.669 2.884,-1.324 0,0 -0.815,3.257 0,4.629" /></g><g
           transform="translate(64.4418,97.4138)"
           id="g104"><path
             id="path106"
             style="fill:#214044;fill-opacity:1;fill-rule:nonzero;stroke:none"
             d="m 0,0 c 1.986,-0.917 3.59,-0.604 5.572,0.324 1.248,0.584 1.955,1.818 3.11,1.065 0.365,-0.237 1.366,-0.911 1.666,-1.226 1.449,-1.523 4.235,-1.436 5.586,0.175 1.29,1.54 0.996,3.63 0.783,5.627 C 14.242,7.066 2.644,7.785 -1.756,7.243 -2.639,4.625 -2.284,1.055 0,0" /></g><g
           transform="translate(72.4181,99.5792)"
           id="g108"><path
             id="path110"
             style="fill:#3393a0;fill-opacity:1;fill-rule:nonzero;stroke:none"
             d="m 0,0 c 0.311,0 0.643,-0.092 1.001,-0.324 0.228,-0.149 1.382,-0.909 1.761,-1.306 0.586,-0.615 1.466,-0.948 2.423,-0.921 0.954,0.03 1.814,0.42 2.359,1.071 1.074,1.281 0.896,3.035 0.695,4.896 -2.746,0.938 -13.017,1.627 -17.562,1.164 -0.692,-2.417 -0.254,-5.412 1.573,-6.255 1.857,-0.857 3.334,-0.512 5.117,0.322 0.341,0.16 0.65,0.384 0.948,0.602 C -1.208,-0.404 -0.653,0 0,0 m 5.067,-3.632 c -1.203,0 -2.322,0.454 -3.086,1.257 -0.202,0.212 -0.96,0.749 -1.569,1.147 -0.438,0.285 -0.684,0.171 -1.461,-0.396 -0.324,-0.236 -0.692,-0.503 -1.127,-0.706 -2.007,-0.94 -3.8,-1.354 -6.026,-0.326 -2.55,1.178 -3.04,4.945 -2.042,7.906 l 0.108,0.322 0.337,0.041 C -5.433,6.154 6.325,5.465 8.959,4.293 L 9.243,4.167 9.306,3.591 C 9.515,1.661 9.752,-0.527 8.371,-2.174 7.629,-3.059 6.48,-3.59 5.219,-3.63 5.168,-3.631 5.117,-3.632 5.067,-3.632" /></g><g
           transform="translate(72.2121,98.2337)"
           id="g112"><path
             id="path114"
             style="fill:#b58c43;fill-opacity:1;fill-rule:nonzero;stroke:none"
             d="M 0,0 C 0.094,-0.528 1.108,-2.259 0.376,-2.556 0.079,-2.677 -0.258,-2.341 -0.576,-2.428 -0.842,-2.502 -0.962,-2.707 -0.984,-2.964 -1,-3.146 -0.869,-3.363 -0.709,-3.444 0.036,-3.823 1.121,-3.781 1.446,-2.88 1.841,-1.788 1.066,-0.774 0.691,0.191 0.524,0.62 -0.082,0.458 0,0" /></g><g
           transform="translate(73.4403,93.313)"
           id="g116"><path
             id="path118"
             style="fill:#fefff1;fill-opacity:1;fill-rule:nonzero;stroke:none"
             d="m 0,0 c -2.025,0.101 -3.435,0.226 -5.349,0.589 0.04,-0.524 0.327,-2.863 2.411,-2.984 C -0.634,-2.529 0.169,-0.47 0,0" /></g><g
           transform="translate(65.6693,102.388)"
           id="g120"><path
             id="path122"
             style="fill:#fefff1;fill-opacity:1;fill-rule:nonzero;stroke:none"
             d="m 0,0 c 0.432,-0.578 0.864,-1.156 1.296,-1.734 0.335,-0.449 0.659,-1.09 1.165,-1.351 0.132,-0.069 0.282,0.043 0.248,0.19 -0.13,0.558 -0.67,1.024 -1.025,1.461 C 1.228,-0.874 0.773,-0.315 0.318,0.245 0.174,0.422 -0.138,0.185 0,0" /></g><g
           transform="translate(67.5677,102.6711)"
           id="g124"><path
             id="path126"
             style="fill:#fefff1;fill-opacity:1;fill-rule:nonzero;stroke:none"
             d="M 0,0 C 0.33,-0.484 0.659,-0.969 0.989,-1.453 1.252,-1.839 1.48,-2.359 1.9,-2.586 2.063,-2.674 2.217,-2.529 2.191,-2.362 2.115,-1.889 1.672,-1.477 1.393,-1.097 1.064,-0.652 0.736,-0.207 0.408,0.238 0.231,0.478 -0.173,0.255 0,0" /></g><g
           transform="translate(69.9413,102.6667)"
           id="g128"><path
             id="path130"
             style="fill:#fefff1;fill-opacity:1;fill-rule:nonzero;stroke:none"
             d="m 0,0 c 0.309,-0.356 0.604,-0.756 0.962,-1.062 0.123,-0.105 0.34,0.031 0.239,0.184 C 0.931,-0.471 0.565,-0.124 0.238,0.239 0.092,0.401 -0.141,0.163 0,0" /></g><g
           transform="translate(73.5737,112.4098)"
           id="g132"><path
             id="path134"
             style="fill:#fefff1;fill-opacity:1;fill-rule:nonzero;stroke:none"
             d="M 0,0 C 0.574,-0.016 1.116,-0.177 1.595,-0.498 1.989,-0.762 2.262,-1.303 2.678,-1.489 2.787,-1.538 2.896,-1.48 2.906,-1.358 2.951,-0.811 2.27,-0.305 1.86,-0.045 1.3,0.311 0.66,0.484 0,0.489 -0.315,0.492 -0.314,0.009 0,0" /></g><g
           transform="translate(77.2883,109.8257)"
           id="g136"><path
             id="path138"
             style="fill:#fefff1;fill-opacity:1;fill-rule:nonzero;stroke:none"
             d="M 0,0 C 0.225,-0.397 0.393,-0.865 0.777,-1.125 0.928,-1.227 1.07,-1.059 1.05,-0.915 0.991,-0.49 0.636,-0.116 0.4,0.234 0.235,0.479 -0.149,0.262 0,0" /></g><g
           transform="translate(78.976,107.2135)"
           id="g140"><path
             id="path142"
             style="fill:#fefff1;fill-opacity:1;fill-rule:nonzero;stroke:none"
             d="m 0,0 c -0.018,0.014 -0.037,0.027 -0.055,0.04 -0.044,0.032 -0.127,0.032 -0.171,0 C -0.244,0.027 -0.262,0.014 -0.281,0 -0.493,-0.154 -0.435,-0.518 -0.14,-0.518 0.154,-0.518 0.213,-0.155 0,0" /></g><g
           transform="translate(34.2309,18.3791)"
           id="g144"><path
             id="path146"
             style="fill:#135353;fill-opacity:1;fill-rule:nonzero;stroke:none"
             d="m 0,0 c -0.356,-0.743 -0.38,-1.596 -0.396,-2.42 -0.016,-0.756 -0.02,-1.558 0.369,-2.207 0.777,-1.295 2.611,-1.319 4.115,-1.185 5.805,0.515 11.611,1.031 17.416,1.547 1.746,0.155 3.756,0.468 4.65,1.975 0.94,1.584 0.096,3.66 -1.136,5.028 C 23.786,4.107 22.173,5.146 21.195,6.707 20.904,7.172 20.66,7.693 20.218,8.018 16.788,10.541 12.636,9.099 10.197,6.575 7.589,3.876 1.593,3.325 0,0" /></g><g
           transform="translate(43.7737,64.4608)"
           id="g148"><path
             id="path150"
             style="fill:#e84d00;fill-opacity:1;fill-rule:nonzero;stroke:none"
             d="m 0,0 c -1.226,0.642 -5.333,0.273 -5.916,-0.312 -2.763,-2.769 -5.384,-6.269 -5.061,-10.168 0.261,-3.141 2.381,-5.78 3.493,-8.73 2.256,-5.98 0.306,-13.049 3.082,-18.806 0.323,-0.67 0.729,-1.334 1.357,-1.731 0.667,-0.423 0.847,-1.618 1.561,-1.281 5.019,2.37 9.343,-1.052 13.127,0.609 0.554,0.244 1.232,0.053 1.769,0.332 1.147,0.595 1.484,2.093 1.393,3.383 -0.449,6.339 -6.882,11.74 -6.576,18.088 3.947,-0.759 6.931,-2.893 10.558,-4.624 1.492,-0.712 2.947,-1.502 4.444,-2.203 4.459,-2.089 9.292,-3.377 14.199,-3.784 2.997,-0.25 15.576,-0.71 19.998,4.807 5.51,6.874 -2.144,14.45 -9.041,17.838 C 47.614,-6.202 28.32,-10.818 21.541,-7.215 14.706,-3.582 6.827,-3.574 0,0" /></g><g
           transform="translate(74.3837,62.3075)"
           id="g152"><path
             id="path154"
             style="fill:#ff690f;fill-opacity:1;fill-rule:nonzero;stroke:none"
             d="m 0,0 c -0.447,-3.156 1.096,-6.208 2.468,-9.085 1.914,-4.015 3.579,-8.156 4.802,-12.433 1.51,-5.282 2.511,-11.077 6.371,-14.987 2.679,0.801 5.358,1.602 8.037,2.403 2.865,0.856 6.144,2.107 7.002,4.972 0.909,3.033 -1.415,5.952 -2.951,8.721 -1.034,1.863 -1.747,3.883 -2.454,5.893 -0.906,2.572 -1.812,5.145 -2.718,7.718 -1.075,3.051 -2.185,6.167 -4.209,8.691 C 12.5,6.693 1.168,8.238 0,0" /></g><g
           transform="translate(92.2428,35.8145)"
           id="g156"><path
             id="path158"
             style="fill:#135353;fill-opacity:1;fill-rule:nonzero;stroke:none"
             d="M 0,0 C 1.827,0.591 3.788,1.186 5.634,0.657 7.723,0.058 9.275,-2.176 8.905,-4.317 8.506,-6.62 6.315,-8.106 4.318,-9.32 c -1.88,-1.143 -3.788,-2.299 -5.903,-2.909 -3.753,-1.083 -11.214,-2 -9.763,4.012 C -10.141,-3.219 -4.246,-1.373 0,0" /></g><g
           transform="translate(46.314,58.0342)"
           id="g160"><path
             id="path162"
             style="fill:#ff690f;fill-opacity:1;fill-rule:nonzero;stroke:none"
             d="M 0,0 C 1.006,-0.936 1.698,-2.094 2.2,-3.365 2.593,-4.36 2.768,-5.452 3.238,-6.408 3.364,-6.665 3.814,-6.549 3.788,-6.26 3.572,-3.888 2.202,-1.146 0.387,0.388 0.122,0.612 -0.262,0.243 0,0" /></g><g
           transform="translate(52.5187,57.0275)"
           id="g164"><path
             id="path166"
             style="fill:#ff690f;fill-opacity:1;fill-rule:nonzero;stroke:none"
             d="m 0,0 c 0.407,-0.826 0.76,-1.671 1.042,-2.548 0.223,-0.694 0.285,-1.512 0.685,-2.123 0.097,-0.15 0.391,-0.156 0.424,0.055 0.125,0.8 -0.25,1.655 -0.515,2.405 C 1.329,-1.344 0.954,-0.506 0.531,0.311 0.348,0.664 -0.174,0.353 0,0" /></g><g
           transform="translate(61.1533,56.2603)"
           id="g168"><path
             id="path170"
             style="fill:#ff690f;fill-opacity:1;fill-rule:nonzero;stroke:none"
             d="m 0,0 c 2.914,-1.605 4.418,-4.033 5.77,-6.958 0.842,-1.823 1.643,-3.901 3.293,-5.137 0.196,-0.146 0.454,0.136 0.329,0.329 -1.5,2.32 -2.709,4.625 -4.035,7.046 C 4.129,-2.478 2.506,-0.796 0.234,0.4 -0.029,0.539 -0.262,0.145 0,0" /></g><g
           transform="translate(72.0494,49.956)"
           id="g172"><path
             id="path174"
             style="fill:#ff690f;fill-opacity:1;fill-rule:nonzero;stroke:none"
             d="m 0,0 c 0.564,-2.262 1.78,-4.262 2.873,-6.302 0.906,-1.691 1.71,-3.362 3.28,-4.524 0.442,-0.327 0.862,0.411 0.429,0.736 -1.63,1.222 -2.455,3.189 -3.411,4.928 C 2.22,-3.434 1.141,-1.736 0.504,0.139 0.397,0.455 -0.082,0.329 0,0" /></g><g
           transform="translate(51.6075,47.7457)"
           id="g176"><path
             id="path178"
             style="fill:#ff690f;fill-opacity:1;fill-rule:nonzero;stroke:none"
             d="M 0,0 C -0.049,0.598 -0.168,1.389 -0.673,1.779 -0.848,1.915 -1.09,1.793 -1.046,1.561 -0.943,1.019 -0.636,0.565 -0.573,0 -0.533,-0.36 0.03,-0.372 0,0" /></g><g
           transform="translate(77.3921,59.0593)"
           id="g180"><path
             id="path182"
             style="fill:#e84d00;fill-opacity:1;fill-rule:nonzero;stroke:none"
             d="m 0,0 c 0.982,-3.335 2.253,-6.545 3.756,-9.678 0.982,-2.047 2.023,-4.527 4.395,-5.187 0.307,-0.085 0.497,0.356 0.217,0.517 -2.46,1.412 -3.47,3.903 -4.606,6.372 -1.22,2.651 -2.29,5.369 -3.323,8.097 C 0.337,0.39 -0.084,0.286 0,0" /></g><g
           transform="translate(92.2027,39.8874)"
           id="g184"><path
             id="path186"
             style="fill:#e84d00;fill-opacity:1;fill-rule:nonzero;stroke:none"
             d="M 0,0 C 0.523,0.47 2.245,0.225 2.881,0.224 3.696,0.223 4.528,0.123 5.329,0.28 c 0.29,0.057 0.273,0.502 0,0.569 C 4.156,1.138 2.786,0.948 1.589,0.867 0.888,0.82 0.067,0.908 -0.384,0.296 -0.556,0.063 -0.196,-0.176 0,0" /></g><g
           transform="translate(94.0833,44.6254)"
           id="g188"><path
             id="path190"
             style="fill:#e84d00;fill-opacity:1;fill-rule:nonzero;stroke:none"
             d="M 0,0 C 0.438,-0.032 0.877,-0.064 1.315,-0.095 1.694,-0.123 1.958,-0.201 2.229,0.099 2.311,0.19 2.348,0.341 2.274,0.451 2.043,0.796 1.807,0.771 1.416,0.8 0.944,0.834 0.472,0.868 0,0.902 -0.579,0.944 -0.577,0.042 0,0" /></g><g
           transform="translate(91.8169,49.7903)"
           id="g192"><path
             id="path194"
             style="fill:#e84d00;fill-opacity:1;fill-rule:nonzero;stroke:none"
             d="m 0,0 c 0.548,-0.158 1.096,-0.316 1.645,-0.474 0.431,-0.124 0.886,-0.388 1.29,-0.105 0.133,0.094 0.171,0.239 0.101,0.387 C 2.826,0.251 2.306,0.247 1.872,0.352 1.318,0.487 0.763,0.622 0.208,0.756 -0.282,0.875 -0.486,0.14 0,0" /></g><g
           transform="translate(41.7672,25.5708)"
           id="g196"><path
             id="path198"
             style="fill:#ff690f;fill-opacity:1;fill-rule:nonzero;stroke:none"
             d="M 0,0 C 1.651,1.459 3.761,0.487 5.592,0.156 5.828,0.113 5.94,0.393 5.751,0.534 4.222,1.674 1.151,1.61 -0.185,0.185 -0.301,0.061 -0.126,-0.111 0,0" /></g><g
           transform="translate(37.6823,47.4406)"
           id="g200"><path
             id="path202"
             style="fill:#ff690f;fill-opacity:1;fill-rule:nonzero;stroke:none"
             d="m 0,0 c 0.833,-1.031 1.624,-1.794 1.959,-3.148 0.317,-1.28 -0.029,-2.674 0.389,-3.898 0.073,-0.211 0.337,-0.195 0.415,0 0.808,2.02 -0.115,6.688 -2.615,7.3 C -0.009,0.292 -0.092,0.114 0,0" /></g><g
           transform="translate(41.3171,35.2175)"
           id="g204"><path
             id="path206"
             style="fill:#ff690f;fill-opacity:1;fill-rule:nonzero;stroke:none"
             d="M 0,0 C 0.153,-0.473 0.258,-0.929 0.579,-1.316 0.755,-1.529 1.056,-1.336 1.076,-1.11 1.116,-0.643 0.939,-0.22 0.805,0.222 0.649,0.736 -0.165,0.512 0,0" /></g><g
           transform="translate(13.0216,7.2958)"
           id="g208"><path
             id="path210"
             style="fill:#0a84b7;fill-opacity:1;fill-rule:nonzero;stroke:none"
             d="m 0,0 c -1.096,0.631 101.25,28.637 117.07,36.984 15.821,8.348 23.587,0.194 26.463,-3.284 2.877,-3.479 4.028,-10.397 -6.04,-15.707 C 127.426,12.682 24.737,-7.016 24.737,-7.016 24.737,-7.016 16.396,-9.444 0,0" /></g><g
           transform="translate(142.0574,44.4714)"
           id="g212"><path
             id="path214"
             style="fill:#0b769b;fill-opacity:1;fill-rule:nonzero;stroke:none"
             d="m 0,0 c 1.763,-1.606 3.485,-3.261 5.136,-4.982 1.634,-1.703 3.065,-3.72 4.825,-5.278 0.184,-0.163 0.486,0.043 0.351,0.271 C 9.171,-8.061 7.4,-6.407 5.851,-4.8 4.105,-2.988 2.275,-1.273 0.37,0.37 0.117,0.587 -0.251,0.228 0,0" /></g><g
           transform="translate(140.0244,40.5297)"
           id="g216"><path
             id="path218"
             style="fill:#0b769b;fill-opacity:1;fill-rule:nonzero;stroke:none"
             d="m 0,0 c 3.343,-3.271 6.213,-6.893 9.349,-10.342 0.286,-0.313 0.846,0.104 0.596,0.46 C 7.291,-6.086 3.764,-2.752 0.346,0.346 0.114,0.556 -0.227,0.222 0,0" /></g><g
           transform="translate(140.5492,31.8901)"
           id="g220"><path
             id="path222"
             style="fill:#0b769b;fill-opacity:1;fill-rule:nonzero;stroke:none"
             d="m 0,0 c 0.748,-0.67 1.462,-1.373 2.137,-2.118 0.561,-0.62 1.148,-1.705 1.917,-2.042 0.275,-0.12 0.541,0.076 0.49,0.376 C 4.399,-2.951 3.431,-2.182 2.859,-1.598 2.121,-0.847 1.331,-0.149 0.513,0.513 0.157,0.8 -0.353,0.317 0,0" /></g><g
           transform="translate(138.0802,29.1458)"
           id="g224"><path
             id="path226"
             style="fill:#0b769b;fill-opacity:1;fill-rule:nonzero;stroke:none"
             d="m 0,0 c 0.502,-0.453 1.003,-0.906 1.505,-1.359 0.393,-0.354 0.826,-0.969 1.393,-0.949 0.165,0.006 0.362,0.151 0.338,0.338 -0.079,0.592 -0.669,0.878 -1.11,1.232 -0.53,0.425 -1.06,0.85 -1.589,1.275 C 0.164,0.836 -0.369,0.334 0,0" /></g><g
           transform="translate(25.4195,6.2519)"
           id="g228"><path
             id="path230"
             style="fill:#0b769b;fill-opacity:1;fill-rule:nonzero;stroke:none"
             d="M 0,0 C 1.259,-0.65 2.528,-1.281 3.812,-1.88 4.932,-2.403 6.104,-3.077 7.328,-3.3 7.577,-3.345 7.713,-3.039 7.5,-2.891 6.422,-2.146 5.082,-1.758 3.888,-1.226 2.673,-0.683 1.47,-0.114 0.277,0.473 -0.038,0.628 -0.315,0.163 0,0" /></g><g
           transform="translate(34.2333,5.2836)"
           id="g232"><path
             id="path234"
             style="fill:#0b769b;fill-opacity:1;fill-rule:nonzero;stroke:none"
             d="M 0,0 C 0.511,-0.384 1.053,-0.707 1.641,-0.96 2.137,-1.174 2.727,-1.468 3.268,-1.29 3.489,-1.218 3.593,-0.928 3.41,-0.755 3.025,-0.393 2.462,-0.341 1.984,-0.146 1.429,0.081 0.916,0.385 0.43,0.735 -0.018,1.059 -0.43,0.324 0,0" /></g><g
           transform="translate(38.638,5.7411)"
           id="g236"><path
             id="path238"
             style="fill:#0b769b;fill-opacity:1;fill-rule:nonzero;stroke:none"
             d="M 0,0 C 0.389,-0.157 0.778,-0.314 1.168,-0.471 1.533,-0.618 1.866,-0.8 2.263,-0.802 2.584,-0.805 2.784,-0.374 2.534,-0.148 2.234,0.125 1.882,0.215 1.504,0.358 1.08,0.518 0.655,0.678 0.231,0.837 -0.297,1.036 -0.509,0.205 0,0" /></g></g></g></g></svg>