<?xml version="1.0" encoding="UTF-8" standalone="no"?>
<svg
   xmlns:dc="http://purl.org/dc/elements/1.1/"
   xmlns:cc="http://creativecommons.org/ns#"
   xmlns:rdf="http://www.w3.org/1999/02/22-rdf-syntax-ns#"
   xmlns:svg="http://www.w3.org/2000/svg"
   xmlns="http://www.w3.org/2000/svg"
   viewBox="0 0 153.20534 212.28799"
   height="212.28799"
   width="153.20534"
   xml:space="preserve"
   id="svg2"
   version="1.1"><metadata
     id="metadata8"><rdf:RDF><cc:Work
         rdf:about=""><dc:format>image/svg+xml</dc:format><dc:type
           rdf:resource="http://purl.org/dc/dcmitype/StillImage" /></cc:Work></rdf:RDF></metadata><defs
     id="defs6"><clipPath
       id="clipPath18"
       clipPathUnits="userSpaceOnUse"><path
         id="path16"
         d="M 0,159.216 H 114.904 V 0 H 0 Z" /></clipPath></defs><g
     transform="matrix(1.3333333,0,0,-1.3333333,0,212.288)"
     id="g10"><g
       id="g12"><g
         clip-path="url(#clipPath18)"
         id="g14"><g
           transform="translate(76.2606,45.5793)"
           id="g20"><path
             id="path22"
             style="fill:#e84d00;fill-opacity:1;fill-rule:nonzero;stroke:none"
             d="m 0,0 c 0,0 24.305,3.948 37.553,-5.738 v -4.994 c 0,0 -29.723,16.306 -47.904,4.554 0,0 0.586,4.778 10.351,6.178" /></g><g
           transform="translate(105.1622,45.6528)"
           id="g24"><path
             id="path26"
             style="fill:#203f43;fill-opacity:1;fill-rule:nonzero;stroke:none"
             d="M 0,0 C -0.117,0.004 -0.239,-0.003 -0.366,-0.034 L -20.57,-5.013 c -0.08,-0.02 -0.157,-0.049 -0.233,-0.081 -0.154,-0.029 -0.308,-0.052 -0.465,-0.091 -4.04,-0.996 -7.346,-5.117 -7.346,-9.157 v -3.792 c 0,-4.003 3.762,-7.453 8.16,-7.061 2.766,0.248 4.138,3.604 5.453,5.944 0.335,0.597 0.491,1.25 0.491,1.864 0,1.5 0.903,3.139 2.331,3.946 2.351,1.329 4.538,0.107 4.538,-2.141 v -0.086 c 0,-0.608 0.154,-1.178 0.483,-1.609 1.307,-1.717 3.703,-2.032 6.421,-1.333 4.006,1.03 7.22,5.119 7.22,9.125 l 1.78,3.178 C 8.263,-2.559 3.637,0.465 0,0" /></g><g
           transform="translate(106.9804,44.3122)"
           id="g28"><path
             id="path30"
             style="fill:#ff690f;fill-opacity:1;fill-rule:nonzero;stroke:none"
             d="M 0,0 C -0.117,0.004 -0.239,-0.003 -0.366,-0.034 L -20.57,-5.013 c -0.08,-0.02 -0.157,-0.049 -0.233,-0.081 -0.154,-0.029 -0.308,-0.053 -0.465,-0.091 -4.04,-0.996 -7.346,-5.117 -7.346,-9.157 v -3.792 c 0,-4.003 3.208,-6.51 7.211,-5.569 2.703,0.635 5.087,2.112 6.401,4.452 0.336,0.597 0.492,1.25 0.492,1.864 v 0 c 0,1.5 0.902,3.139 2.331,3.946 2.351,1.329 4.538,0.107 4.538,-2.141 v -0.086 c 0,-0.608 0.154,-1.178 0.482,-1.609 1.308,-1.717 3.704,-2.032 6.422,-1.333 4.006,1.03 7.22,5.119 7.22,9.125 v 3.792 C 6.483,-1.945 3.637,0.464 0,0" /></g><g
           transform="translate(106.2237,27.5525)"
           id="g32"><path
             id="path34"
             style="fill:#0983b6;fill-opacity:1;fill-rule:nonzero;stroke:none"
             d="m 0,0 c 2.969,0.764 5.384,3.822 5.384,6.818 v 3.791 c 0,2.778 -2.083,4.607 -4.846,4.254 C 0.459,14.853 0.382,14.849 0.305,14.849 L -19.751,9.906 C -19.849,9.867 -19.953,9.833 -20.055,9.808 -20.091,9.799 -20.128,9.791 -20.164,9.785 L -20.28,9.764 c -0.077,-0.013 -0.153,-0.026 -0.231,-0.045 -3.028,-0.746 -5.491,-3.816 -5.491,-6.844 v -3.792 c 0,-2.994 2.412,-4.863 5.377,-4.166 l 0.114,0.028 c 1.265,0.311 3.559,1.141 4.712,3.194 0.123,0.219 0.191,0.495 0.191,0.777 0,2.346 1.489,4.826 3.622,6.032 0.547,0.309 1.108,0.536 1.668,0.673 2.916,0.719 5.289,-1.069 5.289,-3.986 V 1.549 c 0,-0.279 0.067,-0.52 0.189,-0.68 1.151,-1.511 3.459,-1.21 4.733,-0.896 z" /></g><g
           transform="translate(86.4723,37.4589)"
           id="g36"><path
             id="path38"
             style="fill:#1591bc;fill-opacity:1;fill-rule:nonzero;stroke:none"
             d="M 0,0 C -0.098,-0.039 -0.202,-0.073 -0.303,-0.098 -0.34,-0.107 -0.377,-0.115 -0.412,-0.122 l -0.117,-0.02 c -0.076,-0.014 -0.153,-0.026 -0.231,-0.045 -2.905,-0.716 -5.284,-3.572 -5.473,-6.477 2.269,2.268 4.537,4.537 6.806,6.805 z" /></g><g
           transform="translate(96.3893,39.9028)"
           id="g40"><path
             id="path42"
             style="fill:#1591bc;fill-opacity:1;fill-rule:nonzero;stroke:none"
             d="m 0,0 -15.581,-15.581 c 0.402,-0.701 0.989,-1.248 1.708,-1.589 6.083,6.083 12.165,12.165 18.248,18.248 z" /></g><g
           transform="translate(108.9915,42.1667)"
           id="g44"><path
             id="path46"
             style="fill:#1591bc;fill-opacity:1;fill-rule:nonzero;stroke:none"
             d="m 0,0 -9.513,-9.513 c 0.987,-0.664 1.625,-1.781 1.701,-3.186 3.398,3.397 6.795,6.795 10.192,10.192 C 1.991,-1.312 1.138,-0.424 0,0" /></g><g
           transform="translate(111.2969,32.5434)"
           id="g48"><path
             id="path50"
             style="fill:#1591bc;fill-opacity:1;fill-rule:nonzero;stroke:none"
             d="M 0,0 -4.945,-4.945 C -2.642,-4.297 -0.712,-2.28 0,0" /></g><g
           transform="translate(80.7113,46.0824)"
           id="g52"><path
             id="path54"
             style="fill:#203f43;fill-opacity:1;fill-rule:nonzero;stroke:none"
             d="m 0,0 c 0,0 -9.503,-0.683 -14.262,-2.849 -13.738,-6.253 -6.426,-15.086 0.949,-16.244 6.296,-0.989 8.862,0 8.862,0 v 5.401 c 0,0 -8.685,-1.462 -10.592,2.393 C -16.95,-7.444 -12.383,-1.959 0,0" /></g><g
           transform="translate(77.3158,24.4324)"
           id="g56"><path
             id="path58"
             style="fill:#f25508;fill-opacity:1;fill-rule:nonzero;stroke:none"
             d="M 0,0 V 0 C -1.2,0 -2.182,0.982 -2.182,2.182 V 7.14 c 0,1.2 0.982,2.182 2.182,2.182 1.2,0 2.182,-0.982 2.182,-2.182 V 2.182 C 2.182,0.982 1.2,0 0,0" /></g><g
           transform="translate(113.8778,32.9251)"
           id="g60"><path
             id="path62"
             style="fill:#f25508;fill-opacity:1;fill-rule:nonzero;stroke:none"
             d="m 0,0 h -0.129 c -0.564,0 -1.026,0.462 -1.026,1.027 v 6.202 c 0,0.564 0.462,1.026 1.026,1.026 H 0 c 0.565,0 1.027,-0.462 1.027,-1.026 V 1.027 C 1.027,0.462 0.565,0 0,0" /></g><g
           transform="translate(52.0604,158.6913)"
           id="g64"><path
             id="path66"
             style="fill:#e24000;fill-opacity:1;fill-rule:nonzero;stroke:none"
             d="M 0,0 C 0,0 18.464,-3.073 19.763,-22.737 21.062,-42.4 0.835,-66.48 -1.318,-99.091 c -2.153,-32.612 -6.182,-64.882 -32.285,-58.874 -26.102,6.008 -15.618,36.792 -3.298,67.064 12.32,30.271 4.655,60.77 14.42,77.887 C -12.717,4.104 0,0 0,0" /></g><g
           transform="translate(52.3835,158.6037)"
           id="g68"><path
             id="path70"
             style="fill:#ff690f;fill-opacity:1;fill-rule:nonzero;stroke:none"
             d="m 0,0 c 0,0 15.863,-2.402 17.162,-22.065 1.3,-19.664 -18.927,-43.743 -21.08,-76.355 -2.154,-32.612 -6.182,-64.881 -32.285,-58.874 -26.102,6.008 -15.619,36.792 -3.299,67.064 12.32,30.272 4.656,60.77 14.42,77.888 C -15.317,4.775 0,0 0,0" /></g><g
           transform="translate(44.5938,81.7844)"
           id="g72"><path
             id="path74"
             style="fill:#a7ca16;fill-opacity:1;fill-rule:nonzero;stroke:none"
             d="m 0,0 v 0 c -2.236,-1.399 -5.209,-0.715 -6.608,1.521 l -9.94,15.883 c -1.399,2.236 -0.714,5.209 1.521,6.608 2.235,1.399 5.209,0.715 6.608,-1.52 L 1.521,6.608 C 2.92,4.373 2.235,1.399 0,0" /></g><g
           transform="translate(44.5938,81.7844)"
           id="g76"><path
             id="path78"
             style="fill:#e84d00;fill-opacity:1;fill-rule:nonzero;stroke:none"
             d="m 0,0 v 0 c -0.291,-0.182 -0.678,-0.093 -0.861,0.198 l -11.044,17.649 c -0.182,0.291 -0.093,0.678 0.198,0.86 0.291,0.182 0.678,0.093 0.86,-0.198 L 0.198,0.86 C 0.38,0.569 0.291,0.182 0,0" /></g><g
           transform="translate(31.8737,86.6449)"
           id="g80"><path
             id="path82"
             style="fill:#92a6b5;fill-opacity:1;fill-rule:nonzero;stroke:none"
             d="M 0,0 V 0 C -0.33,-0.084 -0.668,0.116 -0.753,0.446 L -3.137,9.77 c -0.084,0.329 0.117,0.668 0.446,0.752 0.33,0.085 0.669,-0.116 0.753,-0.446 L 0.446,0.753 C 0.53,0.423 0.33,0.084 0,0" /></g><g
           transform="translate(45.783,95.3494)"
           id="g84"><path
             id="path86"
             style="fill:#92a6b5;fill-opacity:1;fill-rule:nonzero;stroke:none"
             d="m 0,0 v 0 c 0.22,0.26 0.187,0.652 -0.072,0.872 l -7.343,6.22 C -7.675,7.312 -8.067,7.28 -8.287,7.02 -8.507,6.76 -8.475,6.368 -8.215,6.148 l 7.343,-6.22 C -0.612,-0.292 -0.22,-0.26 0,0" /></g><g
           transform="translate(44.8168,94.7447)"
           id="g88"><path
             id="path90"
             style="fill:#d3e0eb;fill-opacity:1;fill-rule:nonzero;stroke:none"
             d="M 0,0 C 0.334,-0.534 1.037,-0.695 1.571,-0.362 2.105,-0.028 2.266,0.676 1.932,1.209 1.598,1.743 0.895,1.905 0.361,1.571 -0.172,1.237 -0.334,0.534 0,0" /></g><g
           transform="translate(46.005,91.3629)"
           id="g92"><path
             id="path94"
             style="fill:#92a6b5;fill-opacity:1;fill-rule:nonzero;stroke:none"
             d="M 0,0 V 0 C -0.216,-0.04 -0.361,-0.249 -0.321,-0.465 L 0.802,-6.58 c 0.039,-0.216 0.249,-0.36 0.465,-0.321 0.216,0.04 0.36,0.249 0.321,0.465 L 0.465,-0.321 C 0.425,-0.105 0.216,0.04 0,0" /></g><g
           transform="translate(46.7354,91.2694)"
           id="g96"><path
             id="path98"
             style="fill:#d3e0eb;fill-opacity:1;fill-rule:nonzero;stroke:none"
             d="M 0,0 C 0.052,0.403 -0.234,0.772 -0.637,0.824 -1.04,0.876 -1.409,0.59 -1.461,0.187 -1.512,-0.216 -1.227,-0.585 -0.824,-0.637 -0.421,-0.689 -0.052,-0.403 0,0" /></g><g
           transform="translate(35.3621,84.7026)"
           id="g100"><path
             id="path102"
             style="fill:#92a6b5;fill-opacity:1;fill-rule:nonzero;stroke:none"
             d="M 0,0 V 0 C 0.13,0.177 0.382,0.215 0.559,0.085 L 5.567,-3.598 C 5.744,-3.728 5.783,-3.979 5.653,-4.156 5.522,-4.333 5.271,-4.372 5.094,-4.241 L 0.085,-0.559 C -0.092,-0.429 -0.13,-0.177 0,0" /></g><g
           transform="translate(35.1269,84.0048)"
           id="g104"><path
             id="path106"
             style="fill:#d3e0eb;fill-opacity:1;fill-rule:nonzero;stroke:none"
             d="M 0,0 C -0.385,0.13 -0.592,0.548 -0.462,0.933 -0.333,1.318 0.085,1.525 0.471,1.395 0.856,1.266 1.063,0.848 0.933,0.462 0.803,0.077 0.385,-0.13 0,0" /></g><g
           transform="translate(30.1702,94.2095)"
           id="g108"><path
             id="path110"
             style="fill:#d3e0eb;fill-opacity:1;fill-rule:nonzero;stroke:none"
             d="M 0,0 C 0.161,0.101 0.253,0.276 0.257,0.465 0.304,2.481 1.326,4.44 3.154,5.583 4.981,6.727 7.19,6.79 9.023,5.951 9.195,5.872 9.394,5.879 9.554,5.979 9.814,6.142 9.893,6.485 9.73,6.745 L 7.185,10.813 C 5.479,13.539 1.969,14.674 -0.911,13.241 -4.221,11.596 -5.328,7.467 -3.414,4.408 L -0.766,0.176 C -0.603,-0.084 -0.26,-0.163 0,0" /></g><g
           transform="translate(42.9726,83.2781)"
           id="g112"><path
             id="path114"
             style="fill:#d3e0eb;fill-opacity:1;fill-rule:nonzero;stroke:none"
             d="m 0,0 c -1.514,-0.77 -3.177,-0.833 -4.606,-0.331 -0.328,0.116 -0.613,-0.261 -0.429,-0.555 l 0.294,-0.469 c 1.449,-2.316 4.694,-3.328 7.106,-2.045 2.741,1.457 3.636,4.935 2.018,7.522 L 4.019,4.703 C 3.83,5.005 3.38,4.896 3.331,4.544 3.08,2.723 1.903,0.967 0,0" /></g><g
           transform="translate(38.0673,95.5824)"
           id="g116"><path
             id="path118"
             style="fill:#e84d00;fill-opacity:1;fill-rule:nonzero;stroke:none"
             d="M 0,0 C 0.524,-0.837 0.27,-1.94 -0.567,-2.463 -1.404,-2.987 -2.506,-2.733 -3.03,-1.896 -3.554,-1.06 -3.3,0.043 -2.463,0.567 -1.626,1.09 -0.524,0.837 0,0" /></g><g
           transform="translate(41.5254,89.0697)"
           id="g120"><path
             id="path122"
             style="fill:#e84d00;fill-opacity:1;fill-rule:nonzero;stroke:none"
             d="m 0,0 c 0.37,-0.592 0.191,-1.371 -0.401,-1.742 -0.592,-0.37 -1.371,-0.19 -1.742,0.401 -0.37,0.592 -0.19,1.372 0.401,1.742 C -1.15,0.771 -0.37,0.592 0,0" /></g><g
           transform="translate(32.84,87.2496)"
           id="g124"><path
             id="path126"
             style="fill:#d3e0eb;fill-opacity:1;fill-rule:nonzero;stroke:none"
             d="m 0,0 c 0.334,-0.534 0.172,-1.237 -0.362,-1.571 -0.533,-0.334 -1.237,-0.172 -1.57,0.362 -0.334,0.533 -0.173,1.237 0.361,1.571 C -1.037,0.695 -0.334,0.534 0,0" /></g><g
           transform="translate(37.0494,48.9925)"
           id="g128"><path
             id="path130"
             style="fill:#a7ca16;fill-opacity:1;fill-rule:nonzero;stroke:none"
             d="m 0,0 v 0 c -2.235,-1.399 -5.209,-0.715 -6.608,1.521 l -9.94,15.883 c -1.399,2.236 -0.715,5.209 1.521,6.608 2.235,1.399 5.209,0.715 6.608,-1.52 L 1.521,6.608 C 2.92,4.373 2.235,1.399 0,0" /></g><g
           transform="translate(37.0495,48.9926)"
           id="g132"><path
             id="path134"
             style="fill:#e84d00;fill-opacity:1;fill-rule:nonzero;stroke:none"
             d="m 0,0 v 0 c -0.291,-0.182 -0.678,-0.093 -0.861,0.198 l -11.044,17.649 c -0.182,0.291 -0.093,0.678 0.198,0.86 0.291,0.183 0.678,0.093 0.86,-0.198 L 0.198,0.86 C 0.38,0.569 0.291,0.182 0,0" /></g><g
           transform="translate(24.3294,53.8531)"
           id="g136"><path
             id="path138"
             style="fill:#92a6b5;fill-opacity:1;fill-rule:nonzero;stroke:none"
             d="M 0,0 V 0 C -0.33,-0.084 -0.668,0.117 -0.753,0.446 L -3.137,9.77 c -0.084,0.329 0.117,0.668 0.446,0.752 0.33,0.085 0.669,-0.116 0.753,-0.446 L 0.446,0.753 C 0.53,0.423 0.33,0.084 0,0" /></g><g
           transform="translate(38.2387,62.5576)"
           id="g140"><path
             id="path142"
             style="fill:#92a6b5;fill-opacity:1;fill-rule:nonzero;stroke:none"
             d="m 0,0 v 0 c 0.22,0.26 0.187,0.652 -0.072,0.872 l -7.343,6.22 C -7.675,7.312 -8.067,7.28 -8.287,7.02 -8.507,6.76 -8.475,6.368 -8.215,6.148 l 7.343,-6.22 C -0.612,-0.292 -0.22,-0.26 0,0" /></g><g
           transform="translate(37.2724,61.9529)"
           id="g144"><path
             id="path146"
             style="fill:#d3e0eb;fill-opacity:1;fill-rule:nonzero;stroke:none"
             d="M 0,0 C 0.334,-0.534 1.037,-0.696 1.571,-0.362 2.105,-0.028 2.266,0.676 1.933,1.209 1.599,1.743 0.895,1.905 0.362,1.571 -0.172,1.237 -0.334,0.534 0,0" /></g><g
           transform="translate(38.4607,58.5711)"
           id="g148"><path
             id="path150"
             style="fill:#92a6b5;fill-opacity:1;fill-rule:nonzero;stroke:none"
             d="M 0,0 V 0 C -0.216,-0.04 -0.361,-0.249 -0.321,-0.465 L 0.802,-6.58 c 0.039,-0.216 0.249,-0.36 0.465,-0.321 0.216,0.04 0.36,0.249 0.321,0.465 L 0.465,-0.321 C 0.426,-0.105 0.216,0.04 0,0" /></g><g
           transform="translate(39.191,58.4776)"
           id="g152"><path
             id="path154"
             style="fill:#d3e0eb;fill-opacity:1;fill-rule:nonzero;stroke:none"
             d="M 0,0 C 0.052,0.403 -0.233,0.772 -0.637,0.824 -1.04,0.876 -1.409,0.59 -1.461,0.187 -1.512,-0.216 -1.227,-0.585 -0.824,-0.637 -0.42,-0.688 -0.052,-0.403 0,0" /></g><g
           transform="translate(27.8178,51.9107)"
           id="g156"><path
             id="path158"
             style="fill:#92a6b5;fill-opacity:1;fill-rule:nonzero;stroke:none"
             d="M 0,0 V 0 C 0.13,0.177 0.382,0.215 0.559,0.085 L 5.567,-3.597 C 5.744,-3.728 5.783,-3.979 5.652,-4.156 5.522,-4.333 5.271,-4.372 5.094,-4.241 L 0.085,-0.559 C -0.092,-0.428 -0.13,-0.177 0,0" /></g><g
           transform="translate(27.5826,51.213)"
           id="g160"><path
             id="path162"
             style="fill:#d3e0eb;fill-opacity:1;fill-rule:nonzero;stroke:none"
             d="M 0,0 C -0.385,0.13 -0.592,0.548 -0.463,0.933 -0.333,1.318 0.085,1.525 0.47,1.396 0.856,1.266 1.063,0.848 0.933,0.463 0.803,0.077 0.385,-0.13 0,0" /></g><g
           transform="translate(22.6259,61.4177)"
           id="g164"><path
             id="path166"
             style="fill:#d3e0eb;fill-opacity:1;fill-rule:nonzero;stroke:none"
             d="M 0,0 C 0.161,0.1 0.253,0.276 0.257,0.465 0.304,2.481 1.326,4.44 3.154,5.583 4.981,6.727 7.19,6.79 9.023,5.951 9.195,5.872 9.394,5.878 9.554,5.979 v 0 C 9.814,6.142 9.893,6.485 9.73,6.745 L 7.185,10.812 C 5.479,13.539 1.969,14.673 -0.912,13.241 -4.221,11.596 -5.328,7.466 -3.414,4.408 L -0.766,0.176 C -0.603,-0.084 -0.26,-0.163 0,0" /></g><g
           transform="translate(35.4283,50.4863)"
           id="g168"><path
             id="path170"
             style="fill:#d3e0eb;fill-opacity:1;fill-rule:nonzero;stroke:none"
             d="m 0,0 c -1.514,-0.77 -3.178,-0.833 -4.606,-0.331 -0.328,0.116 -0.613,-0.261 -0.429,-0.555 l 0.294,-0.469 c 1.449,-2.316 4.694,-3.328 7.106,-2.045 2.741,1.457 3.636,4.935 2.017,7.522 L 4.019,4.703 C 3.83,5.005 3.38,4.896 3.331,4.544 3.08,2.724 1.902,0.967 0,0" /></g><g
           transform="translate(30.523,62.7905)"
           id="g172"><path
             id="path174"
             style="fill:#e84d00;fill-opacity:1;fill-rule:nonzero;stroke:none"
             d="M 0,0 C 0.524,-0.837 0.27,-1.939 -0.567,-2.463 -1.404,-2.987 -2.506,-2.733 -3.03,-1.896 -3.554,-1.059 -3.3,0.043 -2.463,0.567 -1.626,1.091 -0.524,0.837 0,0" /></g><g
           transform="translate(33.9811,56.2779)"
           id="g176"><path
             id="path178"
             style="fill:#e84d00;fill-opacity:1;fill-rule:nonzero;stroke:none"
             d="m 0,0 c 0.37,-0.592 0.191,-1.371 -0.401,-1.742 -0.591,-0.37 -1.371,-0.19 -1.742,0.401 -0.37,0.592 -0.19,1.372 0.401,1.742 C -1.15,0.771 -0.37,0.592 0,0" /></g><g
           transform="translate(25.2957,54.4578)"
           id="g180"><path
             id="path182"
             style="fill:#d3e0eb;fill-opacity:1;fill-rule:nonzero;stroke:none"
             d="m 0,0 c 0.334,-0.534 0.172,-1.237 -0.362,-1.571 -0.533,-0.334 -1.237,-0.172 -1.571,0.362 -0.334,0.533 -0.172,1.237 0.362,1.571 C -1.037,0.695 -0.334,0.534 0,0" /></g><g
           transform="translate(62.2053,107.8461)"
           id="g184"><path
             id="path186"
             style="fill:#f25508;fill-opacity:1;fill-rule:nonzero;stroke:none"
             d="m 0,0 c 1.534,3.747 2.967,7.346 4.157,10.813 -6.235,3.044 -12.925,6.201 -19.921,9.381 -7.83,3.56 -15.39,6.854 -22.439,9.797 -0.943,-3.607 -1.532,-7.555 -1.953,-11.777 6.072,-2.959 12.571,-6.02 19.353,-9.103 C -13.574,5.825 -6.578,2.766 0,0" /></g><g
           transform="translate(5.3904,48.5979)"
           id="g188"><path
             id="path190"
             style="fill:#f25508;fill-opacity:1;fill-rule:nonzero;stroke:none"
             d="m 0,0 c -1.27,-3.78 -2.379,-7.475 -3.258,-11.032 6.841,-3.37 14.278,-6.892 22.091,-10.444 6.256,-2.844 12.34,-5.519 18.128,-7.98 1.182,3.527 2.129,7.426 2.902,11.586 -5.089,2.449 -10.444,4.955 -15.992,7.477 C 15.508,-6.591 7.454,-3.092 0,0" /></g><g
           transform="translate(0.2515,27.1855)"
           id="g192"><path
             id="path194"
             style="fill:#f25508;fill-opacity:1;fill-rule:nonzero;stroke:none"
             d="m 0,0 c -0.267,-2.628 -0.326,-5.125 -0.14,-7.464 6.017,-3.088 13.018,-6.472 20.555,-9.898 4.339,-1.972 8.546,-3.817 12.537,-5.508 1.978,1.573 3.687,3.598 5.165,6.003 -4.461,2.196 -9.298,4.488 -14.385,6.801 C 15.066,-6.127 6.909,-2.685 0,0" /></g><g
           transform="translate(32.3921,152.958)"
           id="g196"><path
             id="path198"
             style="fill:#f25508;fill-opacity:1;fill-rule:nonzero;stroke:none"
             d="m 0,0 c -1.599,-1.557 -3.148,-3.492 -4.592,-5.871 5.628,-2.853 12.033,-5.931 18.881,-9.044 8.091,-3.679 15.737,-6.922 22.339,-9.521 0.449,2.545 0.651,5.016 0.545,7.422 -5.79,2.95 -12.436,6.152 -19.568,9.394 C 11.383,-4.791 5.426,-2.221 0,0" /></g></g></g></g></svg>