<?xml version="1.0" standalone="no"?>
<!DOCTYPE svg PUBLIC "-//W3C//DTD SVG 20010904//EN"
 "http://www.w3.org/TR/2001/REC-SVG-20010904/DTD/svg10.dtd">
<svg version="1.0" xmlns="http://www.w3.org/2000/svg"
 width="225.000000pt" height="225.000000pt" viewBox="0 0 225.000000 225.000000"
 preserveAspectRatio="xMidYMid meet">
<metadata>
Created by potrace 1.14, written by Peter Selinger 2001-2017
</metadata>
<g transform="translate(0.000000,225.000000) scale(0.100000,-0.100000)"
fill="#000000" stroke="none">
<path d="M1286 1500 c-26 -22 -56 -40 -65 -40 -9 0 -46 -30 -83 -65 -52 -50
-75 -65 -97 -65 -22 0 -37 -10 -59 -36 -25 -30 -35 -36 -57 -32 -22 5 -35 -3
-68 -37 -23 -23 -82 -73 -132 -110 -49 -37 -92 -69 -94 -71 -2 -2 81 -4 185
-4 164 1 186 3 164 14 -14 8 -52 19 -85 26 -33 7 -64 14 -68 17 -10 6 78 93
96 94 6 1 24 0 38 -1 20 -1 32 8 52 39 20 30 36 42 61 47 22 4 53 23 81 50 28
26 52 41 61 37 9 -3 34 11 62 34 86 72 86 72 126 29 20 -20 36 -39 36 -41 0
-2 -20 -16 -45 -31 -25 -14 -45 -27 -45 -29 0 -1 30 4 67 12 42 8 69 10 71 4
2 -6 18 -5 40 3 l37 13 34 -44 c38 -48 38 -47 -31 -90 -43 -26 -33 -33 18 -13
37 14 55 15 86 7 28 -7 47 -6 66 2 24 12 29 10 53 -17 19 -21 25 -37 22 -56
-6 -29 -5 -30 31 -16 21 8 28 6 41 -13 8 -12 15 -24 15 -27 0 -3 -39 -7 -87
-8 -137 -4 -194 -10 -243 -26 -41 -13 -23 -14 235 -15 217 -1 276 2 267 11 -7
7 -12 20 -12 29 0 9 -32 47 -71 83 -70 63 -73 65 -99 51 -26 -13 -28 -12 -86
46 -50 50 -63 59 -85 54 -23 -5 -34 3 -88 64 -60 68 -63 69 -92 59 -29 -10
-34 -8 -85 43 -47 46 -57 52 -73 42 -14 -9 -21 -8 -32 3 -13 12 -21 8 -63 -26z"/>
<path d="M539 1465 c-149 -47 -249 -195 -236 -351 2 -34 8 -67 11 -73 5 -7 50
-11 124 -11 102 0 122 3 152 21 50 31 209 157 251 200 32 33 41 37 73 32 27
-3 36 -1 36 10 0 18 -71 99 -111 128 -75 53 -208 73 -300 44z"/>
<path d="M120 1010 c-9 -6 -10 -10 -3 -10 6 0 15 5 18 10 8 12 4 12 -15 0z"/>
<path d="M155 1010 c-3 -5 1 -10 10 -10 9 0 13 5 10 10 -3 6 -8 10 -10 10 -2
0 -7 -4 -10 -10z"/>
<path d="M190 1008 c0 -5 15 -8 33 -9 17 0 84 -3 147 -7 154 -9 403 -9 465 0
28 4 80 9 117 10 37 2 65 5 63 7 -8 7 -825 6 -825 -1z"/>
<path d="M1470 1008 c0 -4 7 -8 15 -8 8 0 15 4 15 8 0 5 -7 9 -15 9 -8 0 -15
-4 -15 -9z"/>
<path d="M1513 1008 c-2 -5 17 -9 44 -9 52 -2 52 -2 193 -13 108 -9 91 -9 270
-7 129 2 134 3 111 19 -21 14 -61 16 -318 17 -162 0 -297 -3 -300 -7z"/>
<path d="M268 975 c-1 -2 -28 -6 -58 -10 -30 -4 -56 -8 -58 -10 -9 -8 48 -9
278 -5 140 3 226 7 190 9 -36 2 -83 5 -105 6 -77 7 -243 14 -247 10z"/>
<path d="M698 953 c7 -3 16 -2 19 1 4 3 -2 6 -13 5 -11 0 -14 -3 -6 -6z"/>
<path d="M243 924 c2 -3 37 -14 78 -25 80 -23 148 -22 429 6 19 2 59 4 88 4
28 1 52 4 52 9 0 4 -147 8 -326 8 -179 1 -323 0 -321 -2z"/>
<path d="M908 923 c6 -2 18 -2 25 0 6 3 1 5 -13 5 -14 0 -19 -2 -12 -5z"/>
<path d="M993 898 c-31 -34 -95 -156 -88 -168 10 -16 25 -12 25 8 0 19 45 109
65 131 11 11 12 7 5 -25 -15 -63 -12 -124 5 -124 8 0 15 6 15 13 0 17 44 108
64 132 16 19 17 18 10 -25 -12 -79 -10 -114 6 -118 11 -2 16 9 18 47 1 27 9
70 16 94 12 41 12 46 -3 52 -18 7 -60 -36 -91 -95 -24 -44 -25 -29 -4 34 14
41 14 50 3 57 -20 12 -23 12 -46 -13z"/>
<path d="M1213 898 c-46 -50 -67 -130 -45 -166 14 -22 56 -23 90 -2 48 30 92
137 63 154 -5 4 -12 -13 -16 -36 -14 -81 -61 -137 -98 -116 -39 21 -4 122 51
150 32 15 33 17 14 27 -29 15 -36 14 -59 -11z"/>
<path d="M1379 898 c-22 -40 -38 -128 -29 -153 11 -29 60 -50 60 -25 0 6 -7
10 -16 10 -14 0 -16 8 -11 51 4 28 15 66 26 85 20 33 20 34 1 44 -16 8 -21 6
-31 -12z"/>
<path d="M1543 842 c-37 -88 -43 -113 -27 -119 7 -2 15 12 18 34 19 101 46
149 46 81 0 -58 12 -110 27 -115 18 -7 23 -2 29 31 8 48 45 136 57 136 7 0 7
4 -2 13 -18 17 -37 -12 -52 -79 -7 -29 -16 -51 -21 -48 -4 3 -8 34 -8 69 0 48
-4 64 -16 69 -9 3 -16 6 -17 6 -1 0 -16 -35 -34 -78z"/>
<path d="M1718 909 c-17 -10 0 -28 22 -24 25 5 25 -1 -3 -77 -24 -64 -25 -88
-3 -88 7 0 13 6 13 13 0 21 25 101 39 130 10 18 22 27 39 27 14 0 25 6 25 13
0 9 -17 13 -61 13 -33 -1 -65 -4 -71 -7z"/>
<path d="M1919 902 c-13 -9 -30 -25 -38 -36 -8 -11 -23 -28 -33 -38 -10 -10
-16 -18 -13 -18 3 0 -4 -16 -15 -37 -19 -35 -19 -53 1 -53 5 0 9 7 9 15 0 34
29 73 55 73 23 0 25 -4 25 -44 0 -32 4 -44 15 -44 11 0 15 11 15 43 0 24 7 66
15 93 8 27 15 50 15 50 0 1 -6 4 -14 7 -7 3 -24 -2 -37 -11z m4 -46 c-3 -14
-14 -27 -26 -30 -29 -7 -30 -3 -6 27 26 33 38 34 32 3z"/>
<path d="M2091 850 c-34 -72 -43 -120 -26 -127 6 -2 12 9 13 24 2 30 32 126
37 121 2 -2 6 -23 9 -48 12 -87 17 -100 36 -100 13 0 19 11 24 44 4 25 17 65
30 90 22 43 23 56 5 56 -5 0 -19 -35 -33 -77 -25 -78 -27 -77 -30 18 -1 35 -6
53 -17 59 -13 8 -22 -3 -48 -60z"/>
<path d="M1480 871 c0 -45 -21 -104 -48 -135 -14 -15 -14 -18 -2 -15 8 3 27
29 42 59 30 62 40 121 21 127 -9 3 -13 -8 -13 -36z"/>
<path d="M2008 848 c-24 -67 -30 -119 -13 -125 6 -2 16 23 23 54 7 32 19 71
27 87 15 28 13 46 -5 46 -5 0 -19 -28 -32 -62z"/>
<path d="M738 885 c-2 -2 -46 -6 -98 -10 -227 -17 -224 -22 15 -23 224 -1 237
0 195 14 -42 14 -106 24 -112 19z"/>
<path d="M363 828 c-2 -5 6 -8 19 -9 13 0 30 -2 38 -4 8 -1 41 -8 73 -15 51
-10 81 -9 162 6 11 2 40 7 65 10 58 8 64 14 14 14 -21 1 -113 2 -202 3 -90 1
-166 -1 -169 -5z"/>
</g>
</svg>
